# Blender 4.2.6 LTS
# www.blender.org
mtllib 2.mtl
o TriangularScarf
v -1.000000 0.000000 0.100000
v 1.000000 0.000000 0.100000
v 0.000000 0.000000 -0.100000
v 0.600000 0.000000 0.020000
v -0.600000 0.000000 0.020000
v -0.960777 0.000000 0.092155
v -0.960000 0.000000 0.100000
v -1.000000 0.000000 0.100000
v -0.960777 0.000000 0.092155
v -0.950777 0.000000 0.092155
v -0.940777 0.000000 0.092155
v -0.930777 0.000000 0.092155
v -0.920777 0.000000 0.092155
v -0.950971 0.000000 0.090194
v -0.943721 0.000000 0.090531
v -0.936820 0.000000 0.090928
v -0.930618 0.000000 0.091444
v -0.928773 0.000000 0.092387
v -0.941165 0.000000 0.088233
v -0.937017 0.000000 0.088946
v -0.934626 0.000000 0.089938
v -0.934118 0.000000 0.091159
v -0.936443 0.000000 0.092625
v -0.931359 0.000000 0.086272
v -0.931015 0.000000 0.087440
v -0.934306 0.000000 0.089260
v -0.938332 0.000000 0.091073
v -0.943461 0.000000 0.092877
v -0.950327 0.000000 0.093231
v -0.965000 0.000000 0.100000
v -0.970000 0.000000 0.100000
v -0.975000 0.000000 0.100000
v -0.980000 0.000000 0.100000
v -0.950194 0.000000 0.098039
v -0.955060 0.000000 0.098049
v -0.960277 0.000000 0.098098
v -0.966197 0.000000 0.098227
v -0.972345 0.000000 0.098393
v -0.940388 0.000000 0.096078
v -0.945061 0.000000 0.096076
v -0.950984 0.000000 0.096209
v -0.957761 0.000000 0.096451
v -0.964784 0.000000 0.096751
v -0.930583 0.000000 0.094117
v -0.934943 0.000000 0.094059
v -0.942552 0.000000 0.094346
v -0.950060 0.000000 0.094668
v -0.957413 0.000000 0.095042
v -0.995097 0.000000 0.099019
v -0.990194 0.000000 0.098039
v -0.985291 0.000000 0.097058
v -0.980388 0.000000 0.096078
v -0.995000 0.000000 0.100000
v -0.989562 0.000000 0.098866
v -0.984065 0.000000 0.097710
v -0.978450 0.000000 0.096511
v -0.972656 0.000000 0.095247
v -0.990000 0.000000 0.100000
v -0.983966 0.000000 0.098711
v -0.977847 0.000000 0.097384
v -0.971557 0.000000 0.095981
v -0.965011 0.000000 0.094463
v -0.985000 0.000000 0.100000
v -0.978247 0.000000 0.098554
v -0.971450 0.000000 0.097063
v -0.964562 0.000000 0.095485
v -0.957539 0.000000 0.093775
v -0.950971 0.000000 0.090194
v -0.941165 0.000000 0.088233
v -0.931359 0.000000 0.086272
v -0.921553 0.000000 0.084311
v -0.965680 0.000000 0.093136
v -0.955723 0.000000 0.091348
v -0.945706 0.000000 0.089559
v -0.935566 0.000000 0.087767
v -0.929327 0.000000 0.086789
v -0.970583 0.000000 0.094117
v -0.960825 0.000000 0.092562
v -0.951489 0.000000 0.091112
v -0.942995 0.000000 0.089872
v -0.936787 0.000000 0.089152
v -0.975485 0.000000 0.095097
v -0.966625 0.000000 0.093896
v -0.958123 0.000000 0.092794
v -0.950335 0.000000 0.091890
v -0.943619 0.000000 0.091283
v 0.960000 0.000000 0.100000
v 0.960777 0.000000 0.092155
v 1.000000 0.000000 0.100000
v 0.950194 0.000000 0.098039
v 0.940388 0.000000 0.096078
v 0.930583 0.000000 0.094117
v 0.920777 0.000000 0.092155
v 0.965000 0.000000 0.100000
v 0.955386 0.000000 0.098182
v 0.945952 0.000000 0.096381
v 0.936880 0.000000 0.094616
v 0.932478 0.000000 0.093314
v 0.970000 0.000000 0.100000
v 0.960888 0.000000 0.098347
v 0.952634 0.000000 0.096784
v 0.946097 0.000000 0.095397
v 0.943294 0.000000 0.094385
v 0.975000 0.000000 0.100000
v 0.967011 0.000000 0.098559
v 0.959901 0.000000 0.097221
v 0.954549 0.000000 0.096087
v 0.952342 0.000000 0.095281
v 0.958709 0.000000 0.095911
v 0.965679 0.000000 0.093136
v 0.970583 0.000000 0.094117
v 0.975485 0.000000 0.095097
v 0.980388 0.000000 0.096078
v 0.950777 0.000000 0.092155
v 0.955895 0.000000 0.093034
v 0.961323 0.000000 0.093950
v 0.967369 0.000000 0.094943
v 0.973517 0.000000 0.095970
v 0.940777 0.000000 0.092155
v 0.946292 0.000000 0.092949
v 0.952923 0.000000 0.093865
v 0.960135 0.000000 0.094861
v 0.967201 0.000000 0.095892
v 0.930777 0.000000 0.092155
v 0.937050 0.000000 0.092900
v 0.946241 0.000000 0.093942
v 0.954665 0.000000 0.094923
v 0.961997 0.000000 0.095873
v 0.995000 0.000000 0.100000
v 0.990000 0.000000 0.100000
v 0.985000 0.000000 0.100000
v 0.980000 0.000000 0.100000
v 0.995097 0.000000 0.099019
v 0.989888 0.000000 0.098999
v 0.984577 0.000000 0.098960
v 0.979062 0.000000 0.098886
v 0.973240 0.000000 0.098758
v 0.990194 0.000000 0.098039
v 0.984672 0.000000 0.097995
v 0.979070 0.000000 0.097928
v 0.973306 0.000000 0.097813
v 0.967032 0.000000 0.097596
v 0.985291 0.000000 0.097058
v 0.979250 0.000000 0.096986
v 0.973395 0.000000 0.096909
v 0.967914 0.000000 0.096823
v 0.961925 0.000000 0.096593
v -0.039223 0.000000 -0.092155
v 0.039223 0.000000 -0.092155
v 0.000000 0.000000 -0.100000
v 0.039223 0.000000 -0.092155
v -0.039223 0.000000 -0.092155
v -0.029417 0.000000 -0.090194
v -0.019612 0.000000 -0.088233
v -0.009806 0.000000 -0.086272
v 0.000000 0.000000 -0.084311
v -0.049029 0.000000 -0.090194
v -0.037589 0.000000 -0.088739
v -0.026021 0.000000 -0.087358
v -0.014198 0.000000 -0.086127
v -0.002809 0.000000 -0.085774
v -0.058835 0.000000 -0.088233
v -0.045760 0.000000 -0.087302
v -0.031828 0.000000 -0.086751
v -0.017815 0.000000 -0.086631
v -0.004947 0.000000 -0.087122
v -0.068641 0.000000 -0.086272
v -0.053932 0.000000 -0.085903
v -0.036431 0.000000 -0.086350
v -0.019883 0.000000 -0.087125
v -0.005744 -0.000000 -0.088242
v -0.003808 -0.000000 -0.089175
v 0.034320 0.000000 -0.093136
v 0.029417 0.000000 -0.094117
v 0.024514 0.000000 -0.095097
v 0.019612 0.000000 -0.096078
v 0.029417 0.000000 -0.090194
v 0.025740 0.000000 -0.091109
v 0.022140 0.000000 -0.092098
v 0.018692 0.000000 -0.093236
v 0.015475 0.000000 -0.094435
v 0.019612 0.000000 -0.088233
v 0.016879 0.000000 -0.089075
v 0.014353 0.000000 -0.090165
v 0.012241 0.000000 -0.091427
v 0.010764 0.000000 -0.092775
v 0.009806 0.000000 -0.086272
v 0.007456 0.000000 -0.087026
v 0.005550 0.000000 -0.088403
v 0.004530 0.000000 -0.089719
v 0.004905 -0.000000 -0.091077
v 0.004903 0.000000 -0.099019
v 0.009806 0.000000 -0.098039
v 0.014709 0.000000 -0.097058
v 0.019612 0.000000 -0.096078
v 0.004903 0.000000 -0.099019
v 0.007354 0.000000 -0.097891
v 0.009882 0.000000 -0.096756
v 0.012564 0.000000 -0.095606
v 0.015475 0.000000 -0.094435
v 0.009806 0.000000 -0.098039
v 0.009882 0.000000 -0.096756
v 0.009987 0.000000 -0.095456
v 0.010147 0.000000 -0.094123
v 0.010764 0.000000 -0.092775
v 0.014709 0.000000 -0.097058
v 0.012564 0.000000 -0.095606
v 0.010147 0.000000 -0.094123
v 0.007185 0.000000 -0.092579
v 0.004905 -0.000000 -0.091077
v 0.029417 0.000000 -0.090194
v 0.019612 0.000000 -0.088233
v 0.009806 0.000000 -0.086272
v 0.000000 0.000000 -0.084311
v 0.034320 0.000000 -0.093136
v 0.025740 0.000000 -0.091109
v 0.016879 0.000000 -0.089075
v 0.007456 0.000000 -0.087026
v -0.002809 0.000000 -0.085774
v 0.029417 0.000000 -0.094117
v 0.022140 0.000000 -0.092098
v 0.014353 0.000000 -0.090165
v 0.005550 0.000000 -0.088403
v -0.004947 0.000000 -0.087122
v 0.024514 0.000000 -0.095097
v 0.018692 0.000000 -0.093236
v 0.012241 0.000000 -0.091427
v 0.004530 0.000000 -0.089719
v -0.005744 -0.000000 -0.088242
v -0.049029 0.000000 -0.090194
v -0.058835 0.000000 -0.088233
v -0.068641 0.000000 -0.086272
v -0.078446 0.000000 -0.084311
v -0.029417 0.000000 -0.090194
v -0.037589 0.000000 -0.088739
v -0.045760 0.000000 -0.087302
v -0.053932 0.000000 -0.085903
v -0.058018 0.000000 -0.085212
v -0.019612 0.000000 -0.088233
v -0.026021 0.000000 -0.087358
v -0.031828 0.000000 -0.086751
v -0.036431 0.000000 -0.086350
v -0.038431 0.000000 -0.086202
v -0.009806 0.000000 -0.086272
v -0.014198 0.000000 -0.086127
v -0.017815 0.000000 -0.086631
v -0.019883 0.000000 -0.087125
v -0.020529 -0.000000 -0.087369
v 0.560777 0.000000 0.012155
v 0.560000 0.000000 0.020000
v 0.600000 0.000000 0.020000
v 0.550777 0.000000 0.012155
v 0.540777 0.000000 0.012155
v 0.530777 0.000000 0.012155
v 0.520777 0.000000 0.012155
v 0.565680 0.000000 0.013136
v 0.555895 0.000000 0.013034
v 0.546292 0.000000 0.012949
v 0.537050 0.000000 0.012900
v 0.532478 0.000000 0.013314
v 0.570583 0.000000 0.014117
v 0.561323 0.000000 0.013950
v 0.552923 0.000000 0.013865
v 0.546241 0.000000 0.013942
v 0.543294 0.000000 0.014385
v 0.575485 0.000000 0.015097
v 0.567369 0.000000 0.014943
v 0.560135 0.000000 0.014861
v 0.554665 0.000000 0.014923
v 0.552342 0.000000 0.015281
v 0.558709 0.000000 0.015911
v 0.565000 0.000000 0.020000
v 0.570000 0.000000 0.020000
v 0.575000 0.000000 0.020000
v 0.580000 0.000000 0.020000
v 0.550194 0.000000 0.018039
v 0.555386 0.000000 0.018182
v 0.560888 0.000000 0.018347
v 0.567011 0.000000 0.018559
v 0.573240 0.000000 0.018758
v 0.540388 0.000000 0.016078
v 0.545952 0.000000 0.016381
v 0.552634 0.000000 0.016784
v 0.559901 0.000000 0.017221
v 0.567032 0.000000 0.017596
v 0.530582 0.000000 0.014117
v 0.536880 0.000000 0.014616
v 0.546097 0.000000 0.015397
v 0.554549 0.000000 0.016087
v 0.561925 0.000000 0.016593
v 0.595097 0.000000 0.019019
v 0.590194 0.000000 0.018039
v 0.585291 0.000000 0.017058
v 0.580388 0.000000 0.016078
v 0.595000 0.000000 0.020000
v 0.589888 0.000000 0.018999
v 0.584673 0.000000 0.017995
v 0.579250 0.000000 0.016986
v 0.573517 0.000000 0.015970
v 0.590000 0.000000 0.020000
v 0.584577 0.000000 0.018960
v 0.579070 0.000000 0.017928
v 0.573395 0.000000 0.016909
v 0.567201 0.000000 0.015892
v 0.585000 0.000000 0.020000
v 0.579062 0.000000 0.018886
v 0.573306 0.000000 0.017813
v 0.567914 0.000000 0.016823
v 0.561997 0.000000 0.015873
v -0.639223 0.000000 0.027845
v -0.600000 0.000000 0.020000
v -0.560000 0.000000 0.020000
v -0.560777 0.000000 0.012155
v -0.634320 0.000000 0.026864
v -0.629417 0.000000 0.025883
v -0.624514 0.000000 0.024903
v -0.619612 0.000000 0.023922
v -0.629417 0.000000 0.025883
v -0.624724 0.000000 0.025148
v -0.620079 0.000000 0.024413
v -0.615532 0.000000 0.023677
v -0.611132 0.000000 0.022942
v -0.619612 0.000000 0.023922
v -0.614969 0.000000 0.023412
v -0.610445 0.000000 0.022903
v -0.606156 0.000000 0.022400
v -0.602219 0.000000 0.021905
v -0.609806 0.000000 0.021961
v -0.604901 0.000000 0.021634
v -0.600221 0.000000 0.021318
v -0.595993 0.000000 0.021021
v -0.592441 0.000000 0.020756
v -0.581365 0.000000 0.019438
v -0.595000 0.000000 0.020000
v -0.590000 0.000000 0.020000
v -0.585000 0.000000 0.020000
v -0.580000 0.000000 0.020000
v -0.604903 0.000000 0.020981
v -0.598911 0.000000 0.020735
v -0.592761 0.000000 0.020470
v -0.586296 0.000000 0.020163
v -0.579360 0.000000 0.019796
v -0.609806 0.000000 0.021961
v -0.602870 0.000000 0.021471
v -0.595639 0.000000 0.020942
v -0.587818 0.000000 0.020337
v -0.579112 0.000000 0.019617
v -0.614709 0.000000 0.022942
v -0.606927 0.000000 0.022206
v -0.598753 0.000000 0.021420
v -0.589791 0.000000 0.020531
v -0.579650 0.000000 0.019489
v -0.550194 0.000000 0.018039
v -0.540388 0.000000 0.016078
v -0.530583 0.000000 0.014117
v -0.520777 0.000000 0.012155
v -0.565000 0.000000 0.020000
v -0.557054 0.000000 0.018447
v -0.549156 0.000000 0.016895
v -0.541357 0.000000 0.015342
v -0.537831 0.000000 0.014198
v -0.570000 0.000000 0.020000
v -0.564169 0.000000 0.018876
v -0.558971 0.000000 0.017806
v -0.555039 0.000000 0.016844
v -0.554039 0.000000 0.016144
v -0.575000 0.000000 0.020000
v -0.571794 0.000000 0.019346
v -0.569226 0.000000 0.018744
v -0.567934 0.000000 0.018243
v -0.568557 0.000000 0.017896
v -0.570583 0.000000 0.014117
v -0.580388 0.000000 0.016078
v -0.590194 0.000000 0.018039
v -0.600000 0.000000 0.020000
v -0.550777 0.000000 0.012155
v -0.561241 0.000000 0.014035
v -0.571960 0.000000 0.015935
v -0.583190 0.000000 0.017875
v -0.594360 0.000000 0.019796
v -0.540777 0.000000 0.012155
v -0.551948 0.000000 0.013953
v -0.564165 0.000000 0.015845
v -0.576823 0.000000 0.017763
v -0.589112 0.000000 0.019617
v -0.530777 0.000000 0.012155
v -0.542753 0.000000 0.013871
v -0.557636 0.000000 0.015863
v -0.571733 0.000000 0.017753
v -0.584650 0.000000 0.019489
vn -0.0000 1.0000 -0.0000
vn 1.0000 -0.0000 -0.0000
vn -0.0000 -1.0000 -0.0000
s 0
usemtl ScarfMaterial
f 8//1 53//1 58//1 63//1 33//1 32//1 31//1 30//1 7//1 87//1 94//1 99//1 104//1 132//1 131//1 130//1 129//1 89//1 2//1 1//1
f 150//1 196//1 201//1 206//1 176//1 175//1 174//1 173//1 149//1 249//1 256//1 261//1 266//1 294//1 293//1 292//1 291//1 251//1 4//1 3//1
f 311//2 338//2 343//2 348//2 317//2 316//2 315//2 314//2 310//2 9//2 72//2 77//2 82//2 52//2 51//2 50//2 49//2 8//2 1//2 5//2
f 1//1 2//1 3//1
f 3//3 4//3 5//3
f 3//1 5//1 1//1
f 89//3 133//3 138//3 143//3 113//3 112//3 111//3 110//3 88//3 151//3 215//3 220//3 225//3 195//3 194//3 193//3 192//3 150//3 3//3 2//3
f 7//3 34//3 39//3 44//3 13//3 12//3 11//3 10//3 6//3 152//3 234//3 239//3 244//3 214//3 213//3 212//3 211//3 151//3 88//3 114//3 119//3 124//3 93//3 92//3 91//3 90//3 87//3
f 251//1 295//1 300//1 305//1 275//1 274//1 273//1 272//1 250//1 312//1 357//1 362//1 367//1 337//1 336//1 335//1 334//1 311//1 5//1 4//1
f 149//1 177//1 182//1 187//1 156//1 155//1 154//1 153//1 148//1 313//1 376//1 381//1 386//1 356//1 355//1 354//1 353//1 312//1 250//1 276//1 281//1 286//1 255//1 254//1 253//1 252//1 249//1
f 6//1 10//1 15//1 14//1
f 10//1 11//1 16//1 15//1
f 11//1 12//1 17//1 16//1
f 12//3 13//3 18//3 17//3
f 14//1 15//1 20//1 19//1
f 15//1 16//1 21//1 20//1
f 16//1 17//1 22//1 21//1
f 17//3 18//3 23//3 22//3
f 19//1 20//1 25//1 24//1
f 20//1 21//1 26//1 25//1
f 21//3 22//3 27//3 26//3
f 22//3 23//3 28//3 27//3
f 24//1 25//1 76//1 71//1
f 25//3 26//3 81//3 76//3
f 26//3 27//3 86//3 81//3
f 27//3 28//3 29//3 86//3
f 7//3 30//3 35//3 34//3
f 30//3 31//3 36//3 35//3
f 31//3 32//3 37//3 36//3
f 32//3 33//3 38//3 37//3
f 34//3 35//3 40//3 39//3
f 35//3 36//3 41//3 40//3
f 36//3 37//3 42//3 41//3
f 37//3 38//3 43//3 42//3
f 39//3 40//3 45//3 44//3
f 40//3 41//3 46//3 45//3
f 41//3 42//3 47//3 46//3
f 42//3 43//3 48//3 47//3
f 44//3 45//3 18//3 13//3
f 45//3 46//3 23//3 18//3
f 46//3 47//3 28//3 23//3
f 47//3 48//3 29//3 28//3
f 8//3 49//3 54//3 53//3
f 49//3 50//3 55//3 54//3
f 50//3 51//3 56//3 55//3
f 51//3 52//3 57//3 56//3
f 53//3 54//3 59//3 58//3
f 54//3 55//3 60//3 59//3
f 55//3 56//3 61//3 60//3
f 56//3 57//3 62//3 61//3
f 58//3 59//3 64//3 63//3
f 59//3 60//3 65//3 64//3
f 60//3 61//3 66//3 65//3
f 61//3 62//3 67//3 66//3
f 63//3 64//3 38//3 33//3
f 64//3 65//3 43//3 38//3
f 65//3 66//3 48//3 43//3
f 66//3 67//3 29//3 48//3
f 9//3 68//3 73//3 72//3
f 68//3 69//3 74//3 73//3
f 69//3 70//3 75//3 74//3
f 70//3 71//3 76//3 75//3
f 72//3 73//3 78//3 77//3
f 73//3 74//3 79//3 78//3
f 74//3 75//3 80//3 79//3
f 75//3 76//3 81//3 80//3
f 77//3 78//3 83//3 82//3
f 78//3 79//3 84//3 83//3
f 79//3 80//3 85//3 84//3
f 80//3 81//3 86//3 85//3
f 82//3 83//3 57//3 52//3
f 83//3 84//3 62//3 57//3
f 84//3 85//3 67//3 62//3
f 85//3 86//3 29//3 67//3
f 87//3 90//3 95//3 94//3
f 90//3 91//3 96//3 95//3
f 91//3 92//3 97//3 96//3
f 92//3 93//3 98//3 97//3
f 94//3 95//3 100//3 99//3
f 95//3 96//3 101//3 100//3
f 96//3 97//3 102//3 101//3
f 97//3 98//3 103//3 102//3
f 99//3 100//3 105//3 104//3
f 100//3 101//3 106//3 105//3
f 101//3 102//3 107//3 106//3
f 102//3 103//3 108//3 107//3
f 104//3 105//3 137//3 132//3
f 105//3 106//3 142//3 137//3
f 106//3 107//3 147//3 142//3
f 107//3 108//3 109//3 147//3
f 88//3 110//3 115//3 114//3
f 110//3 111//3 116//3 115//3
f 111//3 112//3 117//3 116//3
f 112//3 113//3 118//3 117//3
f 114//3 115//3 120//3 119//3
f 115//3 116//3 121//3 120//3
f 116//3 117//3 122//3 121//3
f 117//3 118//3 123//3 122//3
f 119//3 120//3 125//3 124//3
f 120//3 121//3 126//3 125//3
f 121//3 122//3 127//3 126//3
f 122//3 123//3 128//3 127//3
f 124//3 125//3 98//3 93//3
f 125//3 126//3 103//3 98//3
f 126//3 127//3 108//3 103//3
f 127//3 128//3 109//3 108//3
f 89//3 129//3 134//3 133//3
f 129//3 130//3 135//3 134//3
f 130//3 131//3 136//3 135//3
f 131//3 132//3 137//3 136//3
f 133//3 134//3 139//3 138//3
f 134//3 135//3 140//3 139//3
f 135//3 136//3 141//3 140//3
f 136//3 137//3 142//3 141//3
f 138//3 139//3 144//3 143//3
f 139//3 140//3 145//3 144//3
f 140//3 141//3 146//3 145//3
f 141//3 142//3 147//3 146//3
f 143//3 144//3 118//3 113//3
f 144//3 145//3 123//3 118//3
f 145//3 146//3 128//3 123//3
f 146//3 147//3 109//3 128//3
f 148//3 153//3 158//3 157//3
f 153//3 154//3 159//3 158//3
f 154//3 155//3 160//3 159//3
f 155//1 156//1 161//1 160//1
f 157//3 158//3 163//3 162//3
f 158//3 159//3 164//3 163//3
f 159//3 160//3 165//3 164//3
f 160//1 161//1 166//1 165//1
f 162//3 163//3 168//3 167//3
f 163//3 164//3 169//3 168//3
f 164//1 165//1 170//1 169//1
f 165//1 166//1 171//1 170//1
f 167//3 168//3 238//3 233//3
f 168//3 169//3 243//3 238//3
f 169//1 170//1 248//1 243//1
f 170//1 171//1 172//1 248//1
f 149//1 173//1 178//1 177//1
f 173//1 174//1 179//1 178//1
f 174//1 175//1 180//1 179//1
f 175//1 176//1 181//1 180//1
f 177//1 178//1 183//1 182//1
f 178//1 179//1 184//1 183//1
f 179//1 180//1 185//1 184//1
f 180//1 181//1 186//1 185//1
f 182//1 183//1 188//1 187//1
f 183//1 184//1 189//1 188//1
f 184//1 185//1 190//1 189//1
f 185//1 186//1 191//1 190//1
f 187//1 188//1 161//1 156//1
f 188//1 189//1 166//1 161//1
f 189//1 190//1 171//1 166//1
f 190//1 191//1 172//1 171//1
f 150//1 192//1 197//1 196//1
f 192//3 193//3 198//3 197//3
f 193//3 194//3 199//3 198//3
f 194//3 195//3 200//3 199//3
f 196//1 197//1 202//1 201//1
f 197//1 198//1 203//1 202//1
f 198//3 199//3 204//3 203//3
f 199//3 200//3 205//3 204//3
f 201//1 202//1 207//1 206//1
f 202//1 203//1 208//1 207//1
f 203//1 204//1 209//1 208//1
f 204//3 205//3 210//3 209//3
f 206//1 207//1 181//1 176//1
f 207//1 208//1 186//1 181//1
f 208//1 209//1 191//1 186//1
f 209//1 210//1 172//1 191//1
f 151//3 211//3 216//3 215//3
f 211//3 212//3 217//3 216//3
f 212//3 213//3 218//3 217//3
f 213//3 214//3 219//3 218//3
f 215//3 216//3 221//3 220//3
f 216//3 217//3 222//3 221//3
f 217//3 218//3 223//3 222//3
f 218//3 219//3 224//3 223//3
f 220//3 221//3 226//3 225//3
f 221//3 222//3 227//3 226//3
f 222//3 223//3 228//3 227//3
f 223//3 224//3 229//3 228//3
f 225//3 226//3 200//3 195//3
f 226//3 227//3 205//3 200//3
f 227//3 228//3 210//3 205//3
f 228//3 229//3 172//3 210//3
f 152//1 230//1 235//1 234//1
f 230//1 231//1 236//1 235//1
f 231//1 232//1 237//1 236//1
f 232//1 233//1 238//1 237//1
f 234//1 235//1 240//1 239//1
f 235//1 236//1 241//1 240//1
f 236//1 237//1 242//1 241//1
f 237//1 238//1 243//1 242//1
f 239//1 240//1 245//1 244//1
f 240//1 241//1 246//1 245//1
f 241//3 242//3 247//3 246//3
f 242//3 243//3 248//3 247//3
f 244//3 245//3 219//3 214//3
f 245//3 246//3 224//3 219//3
f 246//3 247//3 229//3 224//3
f 247//3 248//3 172//3 229//3
f 249//1 252//1 257//1 256//1
f 252//1 253//1 258//1 257//1
f 253//1 254//1 259//1 258//1
f 254//1 255//1 260//1 259//1
f 256//1 257//1 262//1 261//1
f 257//1 258//1 263//1 262//1
f 258//1 259//1 264//1 263//1
f 259//1 260//1 265//1 264//1
f 261//1 262//1 267//1 266//1
f 262//1 263//1 268//1 267//1
f 263//1 264//1 269//1 268//1
f 264//1 265//1 270//1 269//1
f 266//1 267//1 299//1 294//1
f 267//1 268//1 304//1 299//1
f 268//1 269//1 309//1 304//1
f 269//1 270//1 271//1 309//1
f 250//1 272//1 277//1 276//1
f 272//1 273//1 278//1 277//1
f 273//1 274//1 279//1 278//1
f 274//1 275//1 280//1 279//1
f 276//1 277//1 282//1 281//1
f 277//1 278//1 283//1 282//1
f 278//1 279//1 284//1 283//1
f 279//1 280//1 285//1 284//1
f 281//1 282//1 287//1 286//1
f 282//1 283//1 288//1 287//1
f 283//1 284//1 289//1 288//1
f 284//1 285//1 290//1 289//1
f 286//1 287//1 260//1 255//1
f 287//1 288//1 265//1 260//1
f 288//1 289//1 270//1 265//1
f 289//1 290//1 271//1 270//1
f 251//1 291//1 296//1 295//1
f 291//1 292//1 297//1 296//1
f 292//1 293//1 298//1 297//1
f 293//1 294//1 299//1 298//1
f 295//1 296//1 301//1 300//1
f 296//1 297//1 302//1 301//1
f 297//1 298//1 303//1 302//1
f 298//1 299//1 304//1 303//1
f 300//1 301//1 306//1 305//1
f 301//1 302//1 307//1 306//1
f 302//1 303//1 308//1 307//1
f 303//1 304//1 309//1 308//1
f 305//1 306//1 280//1 275//1
f 306//1 307//1 285//1 280//1
f 307//1 308//1 290//1 285//1
f 308//1 309//1 271//1 290//1
f 310//1 314//1 319//1 318//1
f 314//3 315//3 320//3 319//3
f 315//3 316//3 321//3 320//3
f 316//3 317//3 322//3 321//3
f 318//1 319//1 324//1 323//1
f 319//1 320//1 325//1 324//1
f 320//1 321//1 326//1 325//1
f 321//3 322//3 327//3 326//3
f 323//1 324//1 329//1 328//1
f 324//1 325//1 330//1 329//1
f 325//1 326//1 331//1 330//1
f 326//1 327//1 332//1 331//1
f 328//1 329//1 380//1 375//1
f 329//1 330//1 385//1 380//1
f 330//1 331//1 390//1 385//1
f 331//1 332//1 333//1 390//1
f 311//3 334//3 339//3 338//3
f 334//3 335//3 340//3 339//3
f 335//3 336//3 341//3 340//3
f 336//1 337//1 342//1 341//1
f 338//3 339//3 344//3 343//3
f 339//3 340//3 345//3 344//3
f 340//3 341//3 346//3 345//3
f 341//1 342//1 347//1 346//1
f 343//3 344//3 349//3 348//3
f 344//3 345//3 350//3 349//3
f 345//3 346//3 351//3 350//3
f 346//1 347//1 352//1 351//1
f 348//3 349//3 322//3 317//3
f 349//3 350//3 327//3 322//3
f 350//3 351//3 332//3 327//3
f 351//1 352//1 333//1 332//1
f 312//1 353//1 358//1 357//1
f 353//1 354//1 359//1 358//1
f 354//1 355//1 360//1 359//1
f 355//1 356//1 361//1 360//1
f 357//1 358//1 363//1 362//1
f 358//1 359//1 364//1 363//1
f 359//1 360//1 365//1 364//1
f 360//1 361//1 366//1 365//1
f 362//1 363//1 368//1 367//1
f 363//1 364//1 369//1 368//1
f 364//1 365//1 370//1 369//1
f 365//1 366//1 371//1 370//1
f 367//1 368//1 342//1 337//1
f 368//1 369//1 347//1 342//1
f 369//1 370//1 352//1 347//1
f 370//1 371//1 333//1 352//1
f 313//1 372//1 377//1 376//1
f 372//1 373//1 378//1 377//1
f 373//1 374//1 379//1 378//1
f 374//1 375//1 380//1 379//1
f 376//1 377//1 382//1 381//1
f 377//1 378//1 383//1 382//1
f 378//1 379//1 384//1 383//1
f 379//1 380//1 385//1 384//1
f 381//1 382//1 387//1 386//1
f 382//1 383//1 388//1 387//1
f 383//1 384//1 389//1 388//1
f 384//1 385//1 390//1 389//1
f 386//1 387//1 361//1 356//1
f 387//1 388//1 366//1 361//1
f 388//1 389//1 371//1 366//1
f 389//1 390//1 333//1 371//1
f 148//1 157//1 162//1 167//1 233//1 232//1 231//1 230//1 152//1 6//1 14//1 19//1 24//1 71//1 70//1 69//1 68//1 9//1 310//1 318//1 323//1 328//1 375//1 374//1 373//1 372//1 313//1
