# Blender 4.2.6 LTS
# www.blender.org
mtllib exp_full_task.mtl
o Groove
v 0.559284 -0.328859 0.000000
v 0.531379 -0.315436 -0.172655
v 0.451565 -0.302013 -0.328081
v 0.327753 -0.288591 -0.451113
v 0.172137 -0.275168 -0.529783
v 0.000000 -0.261745 -0.556488
v -0.171791 -0.248322 -0.528719
v -0.326438 -0.234899 -0.449303
v -0.448851 -0.221476 -0.326109
v -0.527124 -0.208054 -0.171273
v -0.553691 -0.194631 -0.000000
v -0.526060 -0.181208 0.170927
v -0.447041 -0.167785 0.324794
v -0.324465 -0.154362 0.446588
v -0.170409 -0.140940 0.524464
v -0.000000 -0.127517 0.550895
v 0.170063 -0.114094 0.523400
v 0.323150 -0.100671 0.444778
v 0.444326 -0.087248 0.322822
v 0.521804 -0.073826 0.169545
v 0.548098 -0.060403 0.000000
v 0.520741 -0.046980 -0.169199
v 0.442516 -0.033557 -0.321507
v 0.321178 -0.020134 -0.442064
v 0.168680 -0.006711 -0.519145
v 0.000000 0.006711 -0.545302
v -0.168335 0.020134 -0.518081
v -0.319863 0.033557 -0.440254
v -0.439801 0.046980 -0.319534
v -0.516485 0.060403 -0.167816
v -0.542506 0.073825 -0.000000
v -0.515422 0.087248 0.167471
v -0.437991 0.100671 0.318219
v -0.317891 0.114094 0.437539
v -0.166952 0.127517 0.513826
v -0.000000 0.140940 0.539709
v 0.166606 0.154362 0.512762
v 0.316576 0.167785 0.435729
v 0.435276 0.181208 0.316247
v 0.511166 0.194631 0.166088
v 0.536913 0.208054 0.000000
v 0.510102 0.221476 -0.165742
v 0.433467 0.234899 -0.314932
v 0.314603 0.248322 -0.433014
v 0.165224 0.261745 -0.508507
v 0.000000 0.275168 -0.534116
v -0.164878 0.288591 -0.507443
v -0.313288 0.302013 -0.431204
v -0.430752 0.315436 -0.312959
v -0.505847 0.328859 -0.164360
v -0.531320 0.342282 -0.000000
v -0.504783 0.355705 0.164014
v -0.428942 0.369127 0.311645
v -0.311316 0.382550 0.428489
v -0.163496 0.395973 0.503188
v 0.000000 0.409396 0.528523
v 0.163150 0.422819 0.502124
v 0.310001 0.436242 0.426680
v 0.426227 0.449664 0.309672
v 0.500528 0.463087 0.162631
v 0.525727 0.476510 0.000000
v 0.499464 0.489933 -0.162286
v 0.424417 0.503356 -0.308357
v 0.308028 0.516778 -0.423965
v 0.161767 0.530201 -0.497868
v -0.000000 0.543624 -0.522931
v -0.161422 0.557047 -0.496805
v -0.306713 0.570470 -0.422155
v -0.421702 0.583893 -0.306385
v -0.495209 0.597315 -0.160903
v -0.520134 0.610738 -0.000000
v -0.494145 0.624161 0.160557
v -0.419892 0.637584 0.305070
v -0.304741 0.651007 0.419440
v -0.160039 0.664429 0.492549
v -0.000000 0.677852 0.517338
v 0.159693 0.691275 0.491486
v 0.303426 0.704698 0.417630
v 0.417178 0.718121 0.303097
v 0.489890 0.731544 0.159175
v 0.514541 0.744966 0.000000
v 0.488826 0.758389 -0.158829
v 0.415368 0.771812 -0.301782
v 0.301454 0.785235 -0.414915
v 0.158311 0.798658 -0.487230
v 0.000000 0.812080 -0.511745
v -0.157965 0.825503 -0.486166
v -0.300139 0.838926 -0.413105
v -0.412653 0.852349 -0.299810
v -0.484571 0.865772 -0.157447
v -0.508949 0.879195 -0.000000
v -0.483507 0.892617 0.157101
v -0.410843 0.906040 0.298495
v -0.298166 0.919463 0.410391
v -0.156582 0.932886 0.481911
v -0.000000 0.946309 0.506152
v 0.156237 0.959732 0.480847
v 0.296851 0.973154 0.408581
v 0.408128 0.986577 0.296523
v 0.479252 1.000000 0.155718
v 0.000000 -1.000000 -0.559284
v 0.109111 -1.000000 -0.548538
v 0.214029 -1.000000 -0.516711
v 0.310722 -1.000000 -0.465028
v 0.395474 -1.000000 -0.395474
v 0.465028 -1.000000 -0.310722
v 0.516711 -1.000000 -0.214029
v 0.548538 -1.000000 -0.109111
v 0.559284 -1.000000 0.000000
v 0.548538 -1.000000 0.109111
v 0.516711 -1.000000 0.214029
v 0.465028 -1.000000 0.310722
v 0.395474 -1.000000 0.395474
v 0.310722 -1.000000 0.465028
v 0.214029 -1.000000 0.516711
v 0.109111 -1.000000 0.548538
v 0.000000 -1.000000 0.559284
v -0.109111 -1.000000 0.548538
v -0.214029 -1.000000 0.516711
v -0.310722 -1.000000 0.465028
v -0.395474 -1.000000 0.395474
v -0.465028 -1.000000 0.310722
v -0.516711 -1.000000 0.214029
v -0.548538 -1.000000 0.109111
v -0.559284 -1.000000 0.000000
v -0.548538 -1.000000 -0.109111
v -0.516711 -1.000000 -0.214029
v -0.465028 -1.000000 -0.310722
v -0.395474 -1.000000 -0.395474
v -0.310722 -1.000000 -0.465028
v -0.214029 -1.000000 -0.516711
v -0.109111 -1.000000 -0.548538
v 0.000000 0.342282 0.000000
vn 0.0244 0.9970 0.0736
vn 0.0460 0.9970 0.0625
vn 0.0631 0.9970 0.0453
vn 0.0741 0.9970 0.0236
vn 0.0778 0.9970 -0.0005
vn 0.0739 0.9970 -0.0245
vn 0.0628 0.9970 -0.0462
vn 0.0455 0.9969 -0.0634
vn 0.0237 0.9969 -0.0745
vn -0.0005 0.9969 -0.0782
vn -0.0247 0.9969 -0.0743
vn -0.0465 0.9969 -0.0631
vn -0.0638 0.9969 -0.0457
vn -0.0748 0.9969 -0.0238
vn -0.0786 0.9969 0.0005
vn -0.0747 0.9969 0.0248
vn -0.0634 0.9969 0.0467
vn -0.0459 0.9969 0.0641
vn -0.0239 0.9969 0.0752
vn 0.0005 0.9969 0.0790
vn 0.0249 0.9969 0.0751
vn 0.0469 0.9969 0.0637
vn 0.0644 0.9969 0.0462
vn 0.0756 0.9968 0.0240
vn 0.0794 0.9968 -0.0005
vn 0.0754 0.9968 -0.0251
vn 0.0641 0.9968 -0.0472
vn 0.0464 0.9968 -0.0647
vn 0.0241 0.9968 -0.0760
vn -0.0005 0.9968 -0.0798
vn -0.0252 0.9968 -0.0758
vn -0.0474 0.9968 -0.0644
vn -0.0651 0.9968 -0.0466
vn -0.0764 0.9968 -0.0243
vn -0.0802 0.9968 0.0005
vn -0.0762 0.9968 0.0253
vn -0.0647 0.9968 0.0477
vn -0.0469 0.9968 0.0654
vn -0.0244 0.9968 0.0768
vn 0.0005 0.9967 0.0806
vn 0.0254 0.9967 0.0766
vn 0.0479 0.9967 0.0651
vn 0.0658 0.9967 0.0471
vn 0.0772 0.9967 0.0245
vn 0.0811 0.9967 -0.0005
vn 0.0770 0.9967 -0.0256
vn 0.0654 0.9967 -0.0482
vn 0.0474 0.9967 -0.0661
vn 0.0246 0.9967 -0.0776
vn -0.0005 0.9967 -0.0815
vn -0.0257 0.9967 -0.0774
vn -0.0484 0.9967 -0.0657
vn -0.0664 0.9967 -0.0476
vn -0.0780 0.9966 -0.0248
vn -0.0819 0.9966 0.0005
vn -0.0778 0.9966 0.0259
vn -0.0661 0.9966 0.0487
vn -0.0478 0.9966 0.0668
vn -0.0249 0.9966 0.0784
vn 0.0006 0.9966 0.0823
vn 0.0260 0.9966 0.0782
vn 0.0489 0.9966 0.0664
vn 0.0672 0.9966 0.0481
vn 0.0788 0.9966 0.0250
vn 0.0828 0.9966 -0.0006
vn 0.0786 0.9966 -0.0261
vn 0.0668 0.9966 -0.0492
vn 0.0484 0.9965 -0.0675
vn 0.0252 0.9965 -0.0792
vn -0.0006 0.9965 -0.0832
vn -0.0263 0.9965 -0.0791
vn -0.0495 0.9965 -0.0671
vn -0.0679 0.9965 -0.0486
vn -0.0797 0.9965 -0.0253
vn -0.0837 0.9965 0.0006
vn -0.0795 0.9965 0.0264
vn -0.0675 0.9965 0.0497
vn -0.0489 0.9965 0.0682
vn -0.0254 0.9965 0.0801
vn 0.0006 0.9965 0.0841
vn 0.0266 0.9964 0.0799
vn 0.0500 0.9964 0.0679
vn 0.0686 0.9964 0.0491
vn 0.0805 0.9964 0.0256
vn 0.0846 0.9964 -0.0006
vn 0.0803 0.9964 -0.0267
vn 0.0682 0.9964 -0.0503
vn 0.0494 0.9964 -0.0690
vn 0.0257 0.9964 -0.0810
vn -0.0006 0.9964 -0.0850
vn -0.0269 0.9964 -0.0808
vn -0.0506 0.9964 -0.0686
vn -0.0694 0.9964 -0.0497
vn -0.0814 0.9963 -0.0258
vn -0.0855 0.9963 0.0006
vn -0.0812 0.9963 0.0270
vn -0.0690 0.9963 0.0508
vn -0.0499 0.9963 0.0698
vn 0.0905 0.3830 -0.9193
vn 0.2681 0.3830 -0.8840
vn 0.4354 0.3830 -0.8147
vn 0.5860 0.3830 -0.7141
vn 0.7141 0.3830 -0.5860
vn 0.8147 0.3830 -0.4354
vn 0.8840 0.3830 -0.2681
vn 0.9193 0.3830 -0.0905
vn 0.9193 0.3830 0.0905
vn 0.8840 0.3830 0.2681
vn 0.8147 0.3830 0.4354
vn 0.7141 0.3830 0.5860
vn 0.5860 0.3830 0.7141
vn 0.4354 0.3830 0.8147
vn 0.2681 0.3830 0.8840
vn 0.0905 0.3830 0.9193
vn -0.0905 0.3830 0.9193
vn -0.2681 0.3830 0.8840
vn -0.4354 0.3830 0.8147
vn -0.5860 0.3830 0.7141
vn -0.7141 0.3830 0.5860
vn -0.8147 0.3830 0.4354
vn -0.8840 0.3830 0.2681
vn -0.9193 0.3830 0.0905
vn -0.9193 0.3830 -0.0905
vn -0.8840 0.3830 -0.2681
vn -0.8147 0.3830 -0.4354
vn -0.7141 0.3830 -0.5860
vn -0.5860 0.3830 -0.7141
vn -0.4354 0.3830 -0.8147
vn -0.0000 -1.0000 -0.0000
vn -0.2681 0.3830 -0.8840
vn -0.0905 0.3830 -0.9193
vt 0.000000 0.000000
vt 0.250000 0.490000
vt 0.250000 0.250000
vt 0.296822 0.485388
vt 0.341844 0.471731
vt 0.383337 0.449553
vt 0.419706 0.419706
vt 0.449553 0.383337
vt 0.471731 0.341844
vt 0.485388 0.296822
vt 0.490000 0.250000
vt 0.485388 0.203178
vt 0.471731 0.158156
vt 0.449553 0.116663
vt 0.419706 0.080294
vt 0.383337 0.050447
vt 0.341844 0.028269
vt 0.296822 0.014612
vt 0.250000 0.010000
vt 0.203178 0.014612
vt 0.158156 0.028269
vt 0.116663 0.050447
vt 0.080294 0.080294
vt 0.050447 0.116663
vt 0.028269 0.158156
vt 0.014612 0.203178
vt 0.010000 0.250000
vt 0.014612 0.296822
vt 0.028269 0.341844
vt 0.050447 0.383337
vt 0.080294 0.419706
vt 0.116663 0.449553
vt 0.158156 0.471731
vt 0.750000 0.490000
vt 0.796822 0.485388
vt 0.841844 0.471731
vt 0.883337 0.449553
vt 0.919706 0.419706
vt 0.949553 0.383337
vt 0.971731 0.341844
vt 0.985388 0.296822
vt 0.990000 0.250000
vt 0.985388 0.203178
vt 0.971731 0.158156
vt 0.949553 0.116663
vt 0.919706 0.080294
vt 0.883337 0.050447
vt 0.841844 0.028269
vt 0.796822 0.014612
vt 0.750000 0.010000
vt 0.703178 0.014612
vt 0.658156 0.028269
vt 0.616663 0.050447
vt 0.580294 0.080294
vt 0.550447 0.116663
vt 0.528269 0.158156
vt 0.514612 0.203178
vt 0.510000 0.250000
vt 0.514612 0.296822
vt 0.528269 0.341844
vt 0.550447 0.383337
vt 0.580294 0.419706
vt 0.616663 0.449553
vt 0.658156 0.471731
vt 0.703178 0.485388
vt 0.203178 0.485388
s 0
f 1/1/1 2/1/1 3/1/1
f 2/1/2 3/1/2 4/1/2
f 3/1/3 4/1/3 5/1/3
f 4/1/4 5/1/4 6/1/4
f 5/1/5 6/1/5 7/1/5
f 6/1/6 7/1/6 8/1/6
f 7/1/7 8/1/7 9/1/7
f 8/1/8 9/1/8 10/1/8
f 9/1/9 10/1/9 11/1/9
f 10/1/10 11/1/10 12/1/10
f 11/1/11 12/1/11 13/1/11
f 12/1/12 13/1/12 14/1/12
f 13/1/13 14/1/13 15/1/13
f 14/1/14 15/1/14 16/1/14
f 15/1/15 16/1/15 17/1/15
f 16/1/16 17/1/16 18/1/16
f 17/1/17 18/1/17 19/1/17
f 18/1/18 19/1/18 20/1/18
f 19/1/19 20/1/19 21/1/19
f 20/1/20 21/1/20 22/1/20
f 21/1/21 22/1/21 23/1/21
f 22/1/22 23/1/22 24/1/22
f 23/1/23 24/1/23 25/1/23
f 24/1/24 25/1/24 26/1/24
f 25/1/25 26/1/25 27/1/25
f 26/1/26 27/1/26 28/1/26
f 27/1/27 28/1/27 29/1/27
f 28/1/28 29/1/28 30/1/28
f 29/1/29 30/1/29 31/1/29
f 30/1/30 31/1/30 32/1/30
f 31/1/31 32/1/31 33/1/31
f 32/1/32 33/1/32 34/1/32
f 33/1/33 34/1/33 35/1/33
f 34/1/34 35/1/34 36/1/34
f 35/1/35 36/1/35 37/1/35
f 36/1/36 37/1/36 38/1/36
f 37/1/37 38/1/37 39/1/37
f 38/1/38 39/1/38 40/1/38
f 39/1/39 40/1/39 41/1/39
f 40/1/40 41/1/40 42/1/40
f 41/1/41 42/1/41 43/1/41
f 42/1/42 43/1/42 44/1/42
f 43/1/43 44/1/43 45/1/43
f 44/1/44 45/1/44 46/1/44
f 45/1/45 46/1/45 47/1/45
f 46/1/46 47/1/46 48/1/46
f 47/1/47 48/1/47 49/1/47
f 48/1/48 49/1/48 50/1/48
f 49/1/49 50/1/49 51/1/49
f 50/1/50 51/1/50 52/1/50
f 51/1/51 52/1/51 53/1/51
f 52/1/52 53/1/52 54/1/52
f 53/1/53 54/1/53 55/1/53
f 54/1/54 55/1/54 56/1/54
f 55/1/55 56/1/55 57/1/55
f 56/1/56 57/1/56 58/1/56
f 57/1/57 58/1/57 59/1/57
f 58/1/58 59/1/58 60/1/58
f 59/1/59 60/1/59 61/1/59
f 60/1/60 61/1/60 62/1/60
f 61/1/61 62/1/61 63/1/61
f 62/1/62 63/1/62 64/1/62
f 63/1/63 64/1/63 65/1/63
f 64/1/64 65/1/64 66/1/64
f 65/1/65 66/1/65 67/1/65
f 66/1/66 67/1/66 68/1/66
f 67/1/67 68/1/67 69/1/67
f 68/1/68 69/1/68 70/1/68
f 69/1/69 70/1/69 71/1/69
f 70/1/70 71/1/70 72/1/70
f 71/1/71 72/1/71 73/1/71
f 72/1/72 73/1/72 74/1/72
f 73/1/73 74/1/73 75/1/73
f 74/1/74 75/1/74 76/1/74
f 75/1/75 76/1/75 77/1/75
f 76/1/76 77/1/76 78/1/76
f 77/1/77 78/1/77 79/1/77
f 78/1/78 79/1/78 80/1/78
f 79/1/79 80/1/79 81/1/79
f 80/1/80 81/1/80 82/1/80
f 81/1/81 82/1/81 83/1/81
f 82/1/82 83/1/82 84/1/82
f 83/1/83 84/1/83 85/1/83
f 84/1/84 85/1/84 86/1/84
f 85/1/85 86/1/85 87/1/85
f 86/1/86 87/1/86 88/1/86
f 87/1/87 88/1/87 89/1/87
f 88/1/88 89/1/88 90/1/88
f 89/1/89 90/1/89 91/1/89
f 90/1/90 91/1/90 92/1/90
f 91/1/91 92/1/91 93/1/91
f 92/1/92 93/1/92 94/1/92
f 93/1/93 94/1/93 95/1/93
f 94/1/94 95/1/94 96/1/94
f 95/1/95 96/1/95 97/1/95
f 96/1/96 97/1/96 98/1/96
f 97/1/97 98/1/97 99/1/97
f 98/1/98 99/1/98 100/1/98
f 101/2/99 133/3/99 102/4/99
f 102/4/100 133/3/100 103/5/100
f 103/5/101 133/3/101 104/6/101
f 104/6/102 133/3/102 105/7/102
f 105/7/103 133/3/103 106/8/103
f 106/8/104 133/3/104 107/9/104
f 107/9/105 133/3/105 108/10/105
f 108/10/106 133/3/106 109/11/106
f 109/11/107 133/3/107 110/12/107
f 110/12/108 133/3/108 111/13/108
f 111/13/109 133/3/109 112/14/109
f 112/14/110 133/3/110 113/15/110
f 113/15/111 133/3/111 114/16/111
f 114/16/112 133/3/112 115/17/112
f 115/17/113 133/3/113 116/18/113
f 116/18/114 133/3/114 117/19/114
f 117/19/115 133/3/115 118/20/115
f 118/20/116 133/3/116 119/21/116
f 119/21/117 133/3/117 120/22/117
f 120/22/118 133/3/118 121/23/118
f 121/23/119 133/3/119 122/24/119
f 122/24/120 133/3/120 123/25/120
f 123/25/121 133/3/121 124/26/121
f 124/26/122 133/3/122 125/27/122
f 125/27/123 133/3/123 126/28/123
f 126/28/124 133/3/124 127/29/124
f 127/29/125 133/3/125 128/30/125
f 128/30/126 133/3/126 129/31/126
f 129/31/127 133/3/127 130/32/127
f 130/32/128 133/3/128 131/33/128
f 101/34/129 102/35/129 103/36/129 104/37/129 105/38/129 106/39/129 107/40/129 108/41/129 109/42/129 110/43/129 111/44/129 112/45/129 113/46/129 114/47/129 115/48/129 116/49/129 117/50/129 118/51/129 119/52/129 120/53/129 121/54/129 122/55/129 123/56/129 124/57/129 125/58/129 126/59/129 127/60/129 128/61/129 129/62/129 130/63/129 131/64/129 132/65/129
f 131/33/130 133/3/130 132/66/130
f 132/66/131 133/3/131 101/2/131
