# Blender 4.2.6 LTS
# www.blender.org
mtllib 3.mtl
o Cube
v -0.970000 -0.080000 0.170000
v -0.970000 -0.050000 0.200000
v -1.000000 -0.050000 0.170000
v -0.970000 -0.077716 0.181481
v -0.970000 -0.071213 0.191213
v -0.981481 -0.077716 0.170000
v -0.981768 -0.074960 0.181768
v -0.981171 -0.069688 0.189688
v -0.987321 -0.067321 0.187321
v -0.981481 -0.050000 0.197716
v -0.991213 -0.050000 0.191213
v -0.970000 -0.061481 0.197716
v -0.981768 -0.061768 0.194960
v -0.989688 -0.061171 0.189688
v -0.997716 -0.061481 0.170000
v -0.991213 -0.071213 0.170000
v -0.997716 -0.050000 0.181481
v -0.994960 -0.061768 0.181768
v -0.989688 -0.069688 0.181171
v -0.970000 0.050000 0.200000
v -0.970000 0.080000 0.170000
v -1.000000 0.050000 0.170000
v -0.970000 0.061481 0.197716
v -0.970000 0.071213 0.191213
v -0.981481 0.050000 0.197716
v -0.981768 0.061768 0.194960
v -0.981171 0.069688 0.189688
v -0.987321 0.067321 0.187321
v -0.981481 0.077716 0.170000
v -0.991213 0.071213 0.170000
v -0.970000 0.077716 0.181481
v -0.981768 0.074960 0.181768
v -0.989688 0.069688 0.181171
v -0.997716 0.050000 0.181481
v -0.991213 0.050000 0.191213
v -0.997716 0.061481 0.170000
v -0.994960 0.061768 0.181768
v -0.989688 0.061171 0.189688
v -0.970000 -0.080000 -0.170000
v -1.000000 -0.050000 -0.170000
v -0.970000 -0.050000 -0.200000
v -0.981481 -0.077716 -0.170000
v -0.991213 -0.071213 -0.170000
v -0.970000 -0.077716 -0.181481
v -0.981768 -0.074960 -0.181768
v -0.989688 -0.069688 -0.181171
v -0.987321 -0.067321 -0.187321
v -0.997716 -0.050000 -0.181481
v -0.991213 -0.050000 -0.191213
v -0.997716 -0.061481 -0.170000
v -0.994960 -0.061768 -0.181768
v -0.989688 -0.061171 -0.189688
v -0.970000 -0.061481 -0.197716
v -0.970000 -0.071213 -0.191213
v -0.981481 -0.050000 -0.197716
v -0.981768 -0.061768 -0.194960
v -0.981171 -0.069688 -0.189688
v -0.970000 0.080000 -0.170000
v -0.970000 0.050000 -0.200000
v -1.000000 0.050000 -0.170000
v -0.970000 0.077716 -0.181481
v -0.970000 0.071213 -0.191213
v -0.981481 0.077716 -0.170000
v -0.981768 0.074960 -0.181768
v -0.981171 0.069688 -0.189688
v -0.987321 0.067321 -0.187321
v -0.981481 0.050000 -0.197716
v -0.991213 0.050000 -0.191213
v -0.970000 0.061481 -0.197716
v -0.981768 0.061768 -0.194960
v -0.989688 0.061171 -0.189688
v -0.997716 0.061481 -0.170000
v -0.991213 0.071213 -0.170000
v -0.997716 0.050000 -0.181481
v -0.994960 0.061768 -0.181768
v -0.989688 0.069688 -0.181171
v 0.970000 -0.080000 0.170000
v 1.000000 -0.050000 0.170000
v 0.970000 -0.050000 0.200000
v 0.981481 -0.077716 0.170000
v 0.991213 -0.071213 0.170000
v 0.970000 -0.077716 0.181481
v 0.981768 -0.074960 0.181768
v 0.989688 -0.069688 0.181171
v 0.987321 -0.067321 0.187321
v 0.997716 -0.050000 0.181481
v 0.991213 -0.050000 0.191213
v 0.997716 -0.061481 0.170000
v 0.994960 -0.061768 0.181768
v 0.989688 -0.061171 0.189688
v 0.970000 -0.061481 0.197716
v 0.970000 -0.071213 0.191213
v 0.981481 -0.050000 0.197716
v 0.981768 -0.061768 0.194960
v 0.981171 -0.069688 0.189688
v 0.970000 0.080000 0.170000
v 0.970000 0.050000 0.200000
v 1.000000 0.050000 0.170000
v 0.970000 0.077716 0.181481
v 0.970000 0.071213 0.191213
v 0.981481 0.077716 0.170000
v 0.981768 0.074960 0.181768
v 0.981171 0.069688 0.189688
v 0.987321 0.067321 0.187321
v 0.981481 0.050000 0.197716
v 0.991213 0.050000 0.191213
v 0.970000 0.061481 0.197716
v 0.981768 0.061768 0.194960
v 0.989688 0.061171 0.189688
v 0.997716 0.061481 0.170000
v 0.991213 0.071213 0.170000
v 0.997716 0.050000 0.181481
v 0.994960 0.061768 0.181768
v 0.989688 0.069688 0.181171
v 0.970000 -0.080000 -0.170000
v 0.970000 -0.050000 -0.200000
v 1.000000 -0.050000 -0.170000
v 0.970000 -0.077716 -0.181481
v 0.970000 -0.071213 -0.191213
v 0.981481 -0.077716 -0.170000
v 0.981768 -0.074960 -0.181768
v 0.981171 -0.069688 -0.189688
v 0.987321 -0.067321 -0.187321
v 0.981481 -0.050000 -0.197716
v 0.991213 -0.050000 -0.191213
v 0.970000 -0.061481 -0.197716
v 0.981768 -0.061768 -0.194960
v 0.989688 -0.061171 -0.189688
v 0.997716 -0.061481 -0.170000
v 0.991213 -0.071213 -0.170000
v 0.997716 -0.050000 -0.181481
v 0.994960 -0.061768 -0.181768
v 0.989688 -0.069688 -0.181171
v 0.970000 0.080000 -0.170000
v 1.000000 0.050000 -0.170000
v 0.970000 0.050000 -0.200000
v 0.981481 0.077716 -0.170000
v 0.991213 0.071213 -0.170000
v 0.970000 0.077716 -0.181481
v 0.981768 0.074960 -0.181768
v 0.989688 0.069688 -0.181171
v 0.987321 0.067321 -0.187321
v 0.997716 0.050000 -0.181481
v 0.991213 0.050000 -0.191213
v 0.997716 0.061481 -0.170000
v 0.994960 0.061768 -0.181768
v 0.989688 0.061171 -0.189688
v 0.970000 0.061481 -0.197716
v 0.970000 0.071213 -0.191213
v 0.981481 0.050000 -0.197716
v 0.981768 0.061768 -0.194960
v 0.981171 0.069688 -0.189688
vn -0.0000 -0.0000 1.0000
vn 1.0000 -0.0000 -0.0000
vn -0.0000 1.0000 -0.0000
vn -1.0000 -0.0000 -0.0000
vn -0.0000 -0.0000 -1.0000
vn -0.2049 -0.9571 0.2049
vn -0.1818 -0.8152 0.5500
vn -0.5500 -0.8152 0.1818
vn -0.4931 -0.7167 0.4931
vn -0.2049 -0.2049 0.9571
vn -0.5500 -0.1818 0.8152
vn -0.1818 -0.5500 0.8152
vn -0.4931 -0.4931 0.7167
vn -0.9571 -0.2049 0.2049
vn -0.8152 -0.5500 0.1818
vn -0.8152 -0.1818 0.5500
vn -0.7167 -0.4931 0.4931
vn -0.2049 0.2049 0.9571
vn -0.1818 0.5500 0.8152
vn -0.5500 0.1818 0.8152
vn -0.4931 0.4931 0.7167
vn -0.2049 0.9571 0.2049
vn -0.5500 0.8152 0.1818
vn -0.1818 0.8152 0.5500
vn -0.4931 0.7167 0.4931
vn -0.9571 0.2049 0.2049
vn -0.8152 0.1818 0.5500
vn -0.8152 0.5500 0.1818
vn -0.7167 0.4931 0.4931
vn -0.2049 -0.9571 -0.2049
vn -0.5500 -0.8152 -0.1818
vn -0.1818 -0.8152 -0.5500
vn -0.4931 -0.7167 -0.4931
vn -0.9571 -0.2049 -0.2049
vn -0.8152 -0.1818 -0.5500
vn -0.8152 -0.5500 -0.1818
vn -0.7167 -0.4931 -0.4931
vn -0.2049 -0.2049 -0.9571
vn -0.1818 -0.5500 -0.8152
vn -0.5500 -0.1818 -0.8152
vn -0.4931 -0.4931 -0.7167
vn -0.2049 0.9571 -0.2049
vn -0.1818 0.8152 -0.5500
vn -0.5500 0.8152 -0.1818
vn -0.4931 0.7167 -0.4931
vn -0.2049 0.2049 -0.9571
vn -0.5500 0.1818 -0.8152
vn -0.1818 0.5500 -0.8152
vn -0.4931 0.4931 -0.7167
vn -0.9571 0.2049 -0.2049
vn -0.8152 0.5500 -0.1818
vn -0.8152 0.1818 -0.5500
vn -0.7167 0.4931 -0.4931
vn 0.2049 -0.9571 0.2049
vn 0.5500 -0.8152 0.1818
vn 0.1818 -0.8152 0.5500
vn 0.4931 -0.7167 0.4931
vn 0.9571 -0.2049 0.2049
vn 0.8152 -0.1818 0.5500
vn 0.8152 -0.5500 0.1818
vn 0.7167 -0.4931 0.4931
vn 0.2049 -0.2049 0.9571
vn 0.1818 -0.5500 0.8152
vn 0.5500 -0.1818 0.8152
vn 0.4931 -0.4931 0.7167
vn 0.2049 0.9571 0.2049
vn 0.1818 0.8152 0.5500
vn 0.5500 0.8152 0.1818
vn 0.4931 0.7167 0.4931
vn 0.2049 0.2049 0.9571
vn 0.5500 0.1818 0.8152
vn 0.1818 0.5500 0.8152
vn 0.4931 0.4931 0.7167
vn 0.9571 0.2049 0.2049
vn 0.8152 0.5500 0.1818
vn 0.8152 0.1818 0.5500
vn 0.7167 0.4931 0.4931
vn 0.2049 -0.9571 -0.2049
vn 0.1818 -0.8152 -0.5500
vn 0.5500 -0.8152 -0.1818
vn 0.4931 -0.7167 -0.4931
vn 0.2049 -0.2049 -0.9571
vn 0.5500 -0.1818 -0.8152
vn 0.1818 -0.5500 -0.8152
vn 0.4931 -0.4931 -0.7167
vn 0.9571 -0.2049 -0.2049
vn 0.8152 -0.5500 -0.1818
vn 0.8152 -0.1818 -0.5500
vn 0.7167 -0.4931 -0.4931
vn 0.2049 0.9571 -0.2049
vn 0.5500 0.8152 -0.1818
vn 0.1818 0.8152 -0.5500
vn 0.4931 0.7167 -0.4931
vn 0.9571 0.2049 -0.2049
vn 0.8152 0.1818 -0.5500
vn 0.8152 0.5500 -0.1818
vn 0.7167 0.4931 -0.4931
vn 0.2049 0.2049 -0.9571
vn 0.1818 0.5500 -0.8152
vn 0.5500 0.1818 -0.8152
vn 0.4931 0.4931 -0.7167
vn -0.1951 -0.9808 -0.0000
vn -0.5556 -0.8315 -0.0000
vn -0.8315 -0.5556 -0.0000
vn -0.9808 -0.1951 -0.0000
vn -0.1951 -0.0000 0.9808
vn -0.5556 -0.0000 0.8315
vn -0.8315 -0.0000 0.5556
vn -0.9808 -0.0000 0.1951
vn -0.1951 0.9808 -0.0000
vn -0.5556 0.8315 -0.0000
vn -0.8315 0.5556 -0.0000
vn -0.9808 0.1951 -0.0000
vn -0.1951 -0.0000 -0.9808
vn -0.5556 -0.0000 -0.8315
vn -0.8315 -0.0000 -0.5556
vn -0.9808 -0.0000 -0.1951
vn -0.0000 -0.9808 -0.1951
vn -0.0000 -0.8315 -0.5556
vn -0.0000 -0.5556 -0.8315
vn -0.0000 -0.1951 -0.9808
vn -0.0000 0.9808 -0.1951
vn -0.0000 0.8315 -0.5556
vn -0.0000 0.5556 -0.8315
vn -0.0000 0.1951 -0.9808
vn 0.9808 -0.0000 -0.1951
vn 0.8315 -0.0000 -0.5556
vn 0.5556 -0.0000 -0.8315
vn 0.1951 -0.0000 -0.9808
vn 0.1951 -0.9808 -0.0000
vn 0.5556 -0.8315 -0.0000
vn 0.8315 -0.5556 -0.0000
vn 0.9808 -0.1951 -0.0000
vn 0.1951 0.9808 -0.0000
vn 0.5556 0.8315 -0.0000
vn 0.8315 0.5556 -0.0000
vn 0.9808 0.1951 -0.0000
vn 0.1951 -0.0000 0.9808
vn 0.5556 -0.0000 0.8315
vn 0.8315 -0.0000 0.5556
vn 0.9808 -0.0000 0.1951
vn -0.0000 -0.9808 0.1951
vn -0.0000 -0.8315 0.5556
vn -0.0000 -0.5556 0.8315
vn -0.0000 -0.1951 0.9808
vn -0.0000 0.9808 0.1951
vn -0.0000 0.8315 0.5556
vn -0.0000 0.5556 0.8315
vn -0.0000 0.1951 0.9808
vn -0.0000 -1.0000 -0.0000
vt 0.421875 0.753750
vt 0.578125 0.753750
vt 0.578125 0.996250
vt 0.421875 0.996250
vt 0.421875 0.518750
vt 0.578125 0.518750
vt 0.578125 0.731250
vt 0.421875 0.731250
vt 0.628750 0.518750
vt 0.871250 0.518750
vt 0.871250 0.731250
vt 0.628750 0.731250
vt 0.421875 0.018750
vt 0.578125 0.018750
vt 0.578125 0.231250
vt 0.421875 0.231250
vt 0.421875 0.253750
vt 0.578125 0.253750
vt 0.578125 0.496250
vt 0.421875 0.496250
vt 0.128750 0.731250
vt 0.128750 0.738425
vt 0.127279 0.738605
vt 0.127315 0.731250
vt 0.128750 0.750000
vt 0.127354 0.750000
vt 0.125000 0.738232
vt 0.125000 0.731250
vt 0.126585 0.750000
vt 0.421875 0.997685
vt 0.403487 0.997721
vt 0.403937 0.996250
vt 0.421875 1.000000
vt 0.404420 1.000000
vt 0.375000 0.997646
vt 0.375000 0.996250
vt 0.394812 1.000000
vt 0.403937 0.018750
vt 0.403487 0.011395
vt 0.421875 0.011575
vt 0.375000 0.018750
vt 0.375000 0.011768
vt 0.404420 0.000000
vt 0.421875 0.000000
vt 0.375000 0.007925
vt 0.596063 0.996250
vt 0.596513 0.997721
vt 0.578125 0.997685
vt 0.625000 0.996250
vt 0.625000 0.997646
vt 0.595580 1.000000
vt 0.578125 1.000000
vt 0.625000 0.998415
vt 0.872685 0.731250
vt 0.872721 0.738605
vt 0.871250 0.738425
vt 0.875000 0.731250
vt 0.875000 0.738232
vt 0.872646 0.750000
vt 0.871250 0.750000
vt 0.875000 0.742075
vt 0.578125 0.011575
vt 0.596513 0.011395
vt 0.596063 0.018750
vt 0.578125 0.000000
vt 0.595580 0.000000
vt 0.625000 0.011768
vt 0.625000 0.018750
vt 0.605188 0.000000
vt 0.128750 0.518750
vt 0.127315 0.518750
vt 0.127279 0.511395
vt 0.128750 0.511575
vt 0.125000 0.518750
vt 0.125000 0.511768
vt 0.127354 0.500000
vt 0.128750 0.500000
vt 0.125000 0.507925
vt 0.421875 0.238425
vt 0.403487 0.238605
vt 0.403937 0.231250
vt 0.421875 0.250000
vt 0.404420 0.250000
vt 0.375000 0.238232
vt 0.375000 0.231250
vt 0.394812 0.250000
vt 0.403937 0.253750
vt 0.403487 0.252279
vt 0.421875 0.252315
vt 0.375000 0.253750
vt 0.375000 0.252354
vt 0.375000 0.251585
vt 0.871250 0.511575
vt 0.872721 0.511395
vt 0.872685 0.518750
vt 0.871250 0.500000
vt 0.872646 0.500000
vt 0.875000 0.511768
vt 0.875000 0.518750
vt 0.873415 0.500000
vt 0.578125 0.252315
vt 0.596513 0.252279
vt 0.596063 0.253750
vt 0.578125 0.250000
vt 0.595580 0.250000
vt 0.625000 0.252354
vt 0.625000 0.253750
vt 0.605188 0.250000
vt 0.596063 0.231250
vt 0.596513 0.238605
vt 0.578125 0.238425
vt 0.625000 0.231250
vt 0.625000 0.238232
vt 0.578125 0.250000
vt 0.625000 0.242075
vt 0.371250 0.731250
vt 0.372685 0.731250
vt 0.372721 0.738605
vt 0.371250 0.738425
vt 0.375000 0.731250
vt 0.375000 0.738232
vt 0.372646 0.750000
vt 0.371250 0.750000
vt 0.381604 0.747887
vt 0.421875 0.738425
vt 0.403487 0.738605
vt 0.403937 0.731250
vt 0.421875 0.750000
vt 0.404420 0.750000
vt 0.375000 0.738232
vt 0.403937 0.753750
vt 0.403487 0.752279
vt 0.421875 0.752315
vt 0.375000 0.753750
vt 0.375000 0.752354
vt 0.421875 0.750000
vt 0.628750 0.738425
vt 0.627279 0.738605
vt 0.627315 0.731250
vt 0.628750 0.750000
vt 0.627354 0.750000
vt 0.625000 0.738232
vt 0.625000 0.731250
vt 0.618924 0.747359
vt 0.578125 0.752315
vt 0.596513 0.752279
vt 0.596063 0.753750
vt 0.578125 0.750000
vt 0.595580 0.750000
vt 0.625000 0.752354
vt 0.625000 0.753750
vt 0.596063 0.731250
vt 0.596513 0.738605
vt 0.578125 0.738425
vt 0.625000 0.731250
vt 0.578125 0.750000
vt 0.371250 0.518750
vt 0.371250 0.511575
vt 0.372721 0.511395
vt 0.372685 0.518750
vt 0.371250 0.500000
vt 0.372646 0.500000
vt 0.375000 0.511768
vt 0.375000 0.518750
vt 0.381076 0.502642
vt 0.421875 0.497685
vt 0.403487 0.497721
vt 0.403937 0.496250
vt 0.421875 0.500000
vt 0.404420 0.500000
vt 0.375000 0.497646
vt 0.375000 0.496250
vt 0.403937 0.518750
vt 0.403487 0.511395
vt 0.421875 0.511575
vt 0.375000 0.518750
vt 0.627315 0.518750
vt 0.627279 0.511395
vt 0.628750 0.511575
vt 0.625000 0.518750
vt 0.625000 0.511768
vt 0.627354 0.500000
vt 0.628750 0.500000
vt 0.618396 0.502113
vt 0.578125 0.511575
vt 0.596513 0.511395
vt 0.596063 0.518750
vt 0.578125 0.500000
vt 0.595580 0.500000
vt 0.625000 0.511768
vt 0.625000 0.518750
vt 0.596063 0.496250
vt 0.596513 0.497721
vt 0.578125 0.497685
vt 0.625000 0.496250
vt 0.625000 0.497646
vt 0.578125 0.500000
s 0
usemtl CardboardMaterial
f 79/1/1 97/2/1 20/3/1 2/4/1
f 117/5/2 135/6/2 98/7/2 78/8/2
f 134/9/3 58/10/3 21/11/3 96/12/3
f 3/13/4 22/14/4 60/15/4 40/16/4
f 41/17/5 59/18/5 136/19/5 116/20/5
f 1/21/6 4/22/6 7/23/6 6/24/6
f 4/22/7 5/25/7 8/26/7 7/23/7
f 6/24/8 7/23/8 19/27/8 16/28/8
f 7/23/9 8/26/9 9/29/9 19/27/9
f 2/4/10 10/30/10 13/31/10 12/32/10
f 10/30/11 11/33/11 14/34/11 13/31/11
f 12/32/12 13/31/12 8/35/12 5/36/12
f 13/31/13 14/34/13 9/37/13 8/35/13
f 3/13/14 15/38/14 18/39/14 17/40/14
f 15/38/15 16/41/15 19/42/15 18/39/15
f 17/40/16 18/39/16 14/43/16 11/44/16
f 18/39/17 19/42/17 9/45/17 14/43/17
f 20/3/18 23/46/18 26/47/18 25/48/18
f 23/46/19 24/49/19 27/50/19 26/47/19
f 25/48/20 26/47/20 38/51/20 35/52/20
f 26/47/21 27/50/21 28/53/21 38/51/21
f 21/11/22 29/54/22 32/55/22 31/56/22
f 29/54/23 30/57/23 33/58/23 32/55/23
f 31/56/24 32/55/24 27/59/24 24/60/24
f 32/55/25 33/58/25 28/61/25 27/59/25
f 22/14/26 34/62/26 37/63/26 36/64/26
f 34/62/27 35/65/27 38/66/27 37/63/27
f 36/64/28 37/63/28 33/67/28 30/68/28
f 37/63/29 38/66/29 28/69/29 33/67/29
f 39/70/30 42/71/30 45/72/30 44/73/30
f 42/71/31 43/74/31 46/75/31 45/72/31
f 44/73/32 45/72/32 57/76/32 54/77/32
f 45/72/33 46/75/33 47/78/33 57/76/33
f 40/16/34 48/79/34 51/80/34 50/81/34
f 48/79/35 49/82/35 52/83/35 51/80/35
f 50/81/36 51/80/36 46/84/36 43/85/36
f 51/80/37 52/83/37 47/86/37 46/84/37
f 41/17/38 53/87/38 56/88/38 55/89/38
f 53/87/39 54/90/39 57/91/39 56/88/39
f 55/89/40 56/88/40 52/83/40 49/82/40
f 56/88/41 57/91/41 47/92/41 52/83/41
f 58/10/42 61/93/42 64/94/42 63/95/42
f 61/93/43 62/96/43 65/97/43 64/94/43
f 63/95/44 64/94/44 76/98/44 73/99/44
f 64/94/45 65/97/45 66/100/45 76/98/45
f 59/18/46 67/101/46 70/102/46 69/103/46
f 67/101/47 68/104/47 71/105/47 70/102/47
f 69/103/48 70/102/48 65/106/48 62/107/48
f 70/102/49 71/105/49 66/108/49 65/106/49
f 60/15/50 72/109/50 75/110/50 74/111/50
f 72/109/51 73/112/51 76/113/51 75/110/51
f 74/111/52 75/110/52 71/105/52 68/114/52
f 75/110/53 76/113/53 66/115/53 71/105/53
f 77/116/54 80/117/54 83/118/54 82/119/54
f 80/117/55 81/120/55 84/121/55 83/118/55
f 82/119/56 83/118/56 95/122/56 92/123/56
f 83/118/57 84/121/57 85/124/57 95/122/57
f 78/8/58 86/125/58 89/126/58 88/127/58
f 86/125/59 87/128/59 90/129/59 89/126/59
f 88/127/60 89/126/60 84/130/60 81/120/60
f 89/126/61 90/129/61 85/124/61 84/130/61
f 79/1/62 91/131/62 94/132/62 93/133/62
f 91/131/63 92/134/63 95/135/63 94/132/63
f 93/133/64 94/132/64 90/129/64 87/136/64
f 94/132/65 95/135/65 85/124/65 90/129/65
f 96/12/66 99/137/66 102/138/66 101/139/66
f 99/137/67 100/140/67 103/141/67 102/138/67
f 101/139/68 102/138/68 114/142/68 111/143/68
f 102/138/69 103/141/69 104/144/69 114/142/69
f 97/2/70 105/145/70 108/146/70 107/147/70
f 105/145/71 106/148/71 109/149/71 108/146/71
f 107/147/72 108/146/72 103/150/72 100/151/72
f 108/146/73 109/149/73 104/144/73 103/150/73
f 98/7/74 110/152/74 113/153/74 112/154/74
f 110/152/75 111/155/75 114/142/75 113/153/75
f 112/154/76 113/153/76 109/149/76 106/156/76
f 113/153/77 114/142/77 104/144/77 109/149/77
f 115/157/78 118/158/78 121/159/78 120/160/78
f 118/158/79 119/161/79 122/162/79 121/159/79
f 120/160/80 121/159/80 133/163/80 130/164/80
f 121/159/81 122/162/81 123/165/81 133/163/81
f 116/20/82 124/166/82 127/167/82 126/168/82
f 124/166/83 125/169/83 128/170/83 127/167/83
f 126/168/84 127/167/84 122/171/84 119/172/84
f 127/167/85 128/170/85 123/165/85 122/171/85
f 117/5/86 129/173/86 132/174/86 131/175/86
f 129/173/87 130/176/87 133/163/87 132/174/87
f 131/175/88 132/174/88 128/170/88 125/169/88
f 132/174/89 133/163/89 123/165/89 128/170/89
f 134/9/90 137/177/90 140/178/90 139/179/90
f 137/177/91 138/180/91 141/181/91 140/178/91
f 139/179/92 140/178/92 152/182/92 149/183/92
f 140/178/93 141/181/93 142/184/93 152/182/93
f 135/6/94 143/185/94 146/186/94 145/187/94
f 143/185/95 144/188/95 147/189/95 146/186/95
f 145/187/96 146/186/96 141/190/96 138/191/96
f 146/186/97 147/189/97 142/184/97 141/190/97
f 136/19/98 148/192/98 151/193/98 150/194/98
f 148/192/99 149/195/99 152/196/99 151/193/99
f 150/194/100 151/193/100 147/189/100 144/197/100
f 151/193/101 152/196/101 142/184/101 147/189/101
f 39/70/102 1/21/102 6/24/102 42/71/102
f 42/71/103 6/24/103 16/28/103 43/74/103
f 43/85/104 16/41/104 15/38/104 50/81/104
f 50/81/105 15/38/105 3/13/105 40/16/105
f 2/4/106 20/3/106 25/48/106 10/30/106
f 10/30/107 25/48/107 35/52/107 11/33/107
f 11/44/108 35/65/108 34/62/108 17/40/108
f 17/40/109 34/62/109 22/14/109 3/13/109
f 21/11/110 58/10/110 63/95/110 29/54/110
f 29/54/111 63/95/111 73/99/111 30/57/111
f 30/68/112 73/112/112 72/109/112 36/64/112
f 36/64/113 72/109/113 60/15/113 22/14/113
f 59/18/114 41/17/114 55/89/114 67/101/114
f 67/101/115 55/89/115 49/82/115 68/104/115
f 68/104/116 49/82/116 48/79/116 74/111/116
f 74/111/117 48/79/117 40/16/117 60/15/117
f 115/157/118 39/70/118 44/73/118 118/158/118
f 118/158/119 44/73/119 54/77/119 119/161/119
f 119/172/120 54/90/120 53/87/120 126/168/120
f 126/168/121 53/87/121 41/17/121 116/20/121
f 58/10/122 134/9/122 139/179/122 61/93/122
f 61/93/123 139/179/123 149/183/123 62/96/123
f 62/107/124 149/195/124 148/192/124 69/103/124
f 69/103/125 148/192/125 136/19/125 59/18/125
f 135/6/126 117/5/126 131/175/126 143/185/126
f 143/185/127 131/175/127 125/169/127 144/188/127
f 144/188/128 125/169/128 124/166/128 150/194/128
f 150/194/129 124/166/129 116/20/129 136/19/129
f 77/116/130 115/157/130 120/160/130 80/117/130
f 80/117/131 120/160/131 130/176/131 81/120/131
f 81/120/132 130/176/132 129/173/132 88/127/132
f 88/127/133 129/173/133 117/5/133 78/8/133
f 134/9/134 96/12/134 101/139/134 137/177/134
f 137/177/135 101/139/135 111/155/135 138/180/135
f 138/180/136 111/155/136 110/152/136 145/187/136
f 145/187/137 110/152/137 98/7/137 135/6/137
f 97/2/138 79/1/138 93/133/138 105/145/138
f 105/145/139 93/133/139 87/128/139 106/148/139
f 106/148/140 87/128/140 86/125/140 112/154/140
f 112/154/141 86/125/141 78/8/141 98/7/141
f 1/21/142 77/116/142 82/119/142 4/22/142
f 4/22/143 82/119/143 92/123/143 5/25/143
f 5/36/144 92/134/144 91/131/144 12/32/144
f 12/32/145 91/131/145 79/1/145 2/4/145
f 96/12/146 21/11/146 31/56/146 99/137/146
f 99/137/147 31/56/147 24/60/147 100/140/147
f 100/151/148 24/49/148 23/46/148 107/147/148
f 107/147/149 23/46/149 20/3/149 97/2/149
f 39/70/150 115/157/150 77/116/150 1/21/150
