# Blender 4.2.6 LTS
# www.blender.org
mtllib exp_full_task.mtl
o Cube.001
v 0.000000 -0.707107 1.000000
v 0.000000 0.707107 1.000000
v -1.000000 -0.707107 0.000000
v -1.000000 0.707107 0.000000
v 1.000000 -0.707107 0.000000
v 1.000000 0.707107 0.000000
v 0.000000 -0.707107 -1.000000
v 0.000000 0.707107 -1.000000
v -0.707107 -0.707107 0.707107
v -0.707107 0.707107 0.707107
v -0.707107 -0.707107 -0.707107
v -0.707107 0.707107 -0.707107
v 0.707107 -0.707107 0.707107
v 0.707107 0.707107 0.707107
v 0.707107 -0.707107 -0.707107
v 0.707107 0.707107 -0.707107
vn -0.7071 -0.0000 0.7071
vn -0.7071 -0.0000 -0.7071
vn 0.7071 -0.0000 -0.7071
vn 0.7071 -0.0000 0.7071
vn -0.0000 -1.0000 -0.0000
vn -0.0000 1.0000 -0.0000
vn -1.0000 -0.0000 -0.0000
vn -0.0000 -0.0000 -1.0000
vn 1.0000 -0.0000 -0.0000
vn -0.0000 -0.0000 1.0000
vt 0.375000 0.000000
vt 0.625000 0.000000
vt 0.625000 0.250000
vt 0.375000 0.250000
vt 0.625000 0.500000
vt 0.375000 0.500000
vt 0.625000 0.750000
vt 0.375000 0.750000
vt 0.625000 1.000000
vt 0.375000 1.000000
vt 0.125000 0.500000
vt 0.125000 0.750000
vt 0.875000 0.500000
vt 0.875000 0.750000
s 0
f 1/1/1 2/2/1 4/3/1 3/4/1
f 3/4/2 4/3/2 8/5/2 7/6/2
f 7/6/3 8/5/3 6/7/3 5/8/3
f 5/8/4 6/7/4 2/9/4 1/10/4
f 3/11/5 7/6/5 5/8/5 1/12/5
f 8/5/6 4/13/6 2/14/6 6/7/6
f 9/1/7 10/2/7 12/3/7 11/4/7
f 11/4/8 12/3/8 16/5/8 15/6/8
f 15/6/9 16/5/9 14/7/9 13/8/9
f 13/8/10 14/7/10 10/9/10 9/10/10
f 11/11/5 15/6/5 13/8/5 9/12/5
f 16/5/6 12/13/6 10/14/6 14/7/6
