# Blender 4.2.6 LTS
# www.blender.org
mtllib 1.mtl
o TaperedWedge
v -1.000000 -0.500000 0.500000
v 1.000000 -0.500000 0.500000
v 1.000000 -0.500000 -0.500000
v -1.000000 -0.500000 -0.500000
v -1.000000 0.500000 0.500000
v 0.000000 0.500000 0.500000
v 0.000000 0.500000 -0.500000
v -1.000000 0.500000 -0.500000
vn -0.5774 0.5774 0.5774
vn 0.3694 0.8918 0.2612
vn 0.3694 0.8918 -0.2612
vn -0.5774 0.5774 -0.5774
vn 0.2971 0.7173 0.6303
vn 0.2971 0.7173 -0.6303
s 1
f 1//1 2//2 3//3 4//4
f 1//1 2//2 6//5 5//1
f 2//2 3//3 7//6 6//5
f 3//3 4//4 8//4 7//6
f 4//4 1//1 5//1 8//4
f 5//1 6//5 7//6 8//4
