# Blender 4.2.6 LTS
# www.blender.org
mtllib 0022.mtl
o Parallelepiped
v -0.666667 -1.000000 0.333333
v 0.666667 -1.000000 0.333333
v 0.666667 -1.000000 -0.333333
v -0.666667 -1.000000 -0.333333
v -0.666667 1.000000 0.333333
v 0.666667 1.000000 0.333333
v 0.666667 1.000000 -0.333333
v -0.666667 1.000000 -0.333333
vn -0.0000 1.0000 -0.0000
vn -0.0000 -0.0000 1.0000
vn -0.0000 -0.0000 -1.0000
vn 1.0000 -0.0000 -0.0000
s 0
f 1//1 2//1 3//1 4//1
f 5//1 6//1 7//1 8//1
f 1//2 2//2 6//2 5//2
f 3//3 4//3 8//3 7//3
f 1//4 4//4 8//4 5//4
f 2//4 3//4 7//4 6//4
