# Blender 4.2.6 LTS
# www.blender.org
mtllib 0035.mtl
o CircleSector
v -1.000000 0.000000 1.000000
v 1.000000 0.000000 1.000000
v 0.997591 0.000000 0.901865
v 0.990369 0.000000 0.803966
v 0.978353 0.000000 0.706539
v 0.961571 0.000000 0.609819
v 0.940063 0.000000 0.514040
v 0.913881 0.000000 0.419431
v 0.883088 0.000000 0.326220
v 0.847759 0.000000 0.234633
v 0.807979 0.000000 0.144890
v 0.763843 0.000000 0.057207
v 0.715457 0.000000 -0.028206
v 0.662939 0.000000 -0.111140
v 0.606415 0.000000 -0.191399
v 0.546021 0.000000 -0.268787
v 0.481902 0.000000 -0.343118
v 0.414214 0.000000 -0.414214
v 0.343118 0.000000 -0.481902
v 0.268787 0.000000 -0.546021
v 0.191399 0.000000 -0.606415
v 0.111140 0.000000 -0.662939
v 0.028206 0.000000 -0.715457
v -0.057207 0.000000 -0.763843
v -0.144890 0.000000 -0.807979
v -0.234633 0.000000 -0.847759
v -0.326220 0.000000 -0.883088
v -0.419431 0.000000 -0.913881
v -0.514040 0.000000 -0.940063
v -0.609819 0.000000 -0.961571
v -0.706539 0.000000 -0.978353
v -0.803966 0.000000 -0.990369
v -0.901865 0.000000 -0.997591
v -1.000000 0.000000 -1.000000
vn -0.0000 1.0000 -0.0000
s 0
f 1//1 2//1 3//1
f 1//1 3//1 4//1
f 1//1 4//1 5//1
f 1//1 5//1 6//1
f 1//1 6//1 7//1
f 1//1 7//1 8//1
f 1//1 8//1 9//1
f 1//1 9//1 10//1
f 1//1 10//1 11//1
f 1//1 11//1 12//1
f 1//1 12//1 13//1
f 1//1 13//1 14//1
f 1//1 14//1 15//1
f 1//1 15//1 16//1
f 1//1 16//1 17//1
f 1//1 17//1 18//1
f 1//1 18//1 19//1
f 1//1 19//1 20//1
f 1//1 20//1 21//1
f 1//1 21//1 22//1
f 1//1 22//1 23//1
f 1//1 23//1 24//1
f 1//1 24//1 25//1
f 1//1 25//1 26//1
f 1//1 26//1 27//1
f 1//1 27//1 28//1
f 1//1 28//1 29//1
f 1//1 29//1 30//1
f 1//1 30//1 31//1
f 1//1 31//1 32//1
f 1//1 32//1 33//1
f 1//1 33//1 34//1
