# Blender 4.2.6 LTS
# www.blender.org
mtllib 0036.mtl
o CircleSegment
v 0.500000 0.000000 0.500000
v 0.498795 0.000000 0.450932
v 0.495185 0.000000 0.401983
v 0.489177 0.000000 0.353270
v 0.480785 0.000000 0.304910
v 0.470031 0.000000 0.257020
v 0.456940 0.000000 0.209715
v 0.441544 0.000000 0.163110
v 0.423880 0.000000 0.117317
v 0.403989 0.000000 0.072445
v 0.381921 0.000000 0.028603
v 0.357729 0.000000 -0.014103
v 0.331470 0.000000 -0.055570
v 0.303208 0.000000 -0.095699
v 0.273010 0.000000 -0.134393
v 0.240951 0.000000 -0.171559
v 0.207107 0.000000 -0.207107
v 0.171559 0.000000 -0.240951
v 0.134393 0.000000 -0.273010
v 0.095699 0.000000 -0.303208
v 0.055570 0.000000 -0.331470
v 0.014103 0.000000 -0.357729
v -0.028603 0.000000 -0.381921
v -0.072445 0.000000 -0.403989
v -0.117317 0.000000 -0.423880
v -0.163110 0.000000 -0.441544
v -0.209715 0.000000 -0.456940
v -0.257020 0.000000 -0.470031
v -0.304910 0.000000 -0.480785
v -0.353270 0.000000 -0.489177
v -0.401983 0.000000 -0.495185
v -0.450932 0.000000 -0.498795
v -0.500000 0.000000 -0.500000
v 0.500000 0.000000 0.500000
v -0.500000 0.000000 -0.500000
vn -0.0000 1.0000 -0.0000
s 0
f 1//1 2//1 33//1 34//1
f 2//1 3//1 33//1 34//1
f 3//1 4//1 33//1 34//1
f 4//1 5//1 33//1 34//1
f 5//1 6//1 33//1 34//1
f 6//1 7//1 33//1 34//1
f 7//1 8//1 33//1 34//1
f 8//1 9//1 33//1 34//1
f 9//1 10//1 33//1 34//1
f 10//1 11//1 33//1 34//1
f 11//1 12//1 33//1 34//1
f 12//1 13//1 33//1 34//1
f 13//1 14//1 33//1 34//1
f 14//1 15//1 33//1 34//1
f 15//1 16//1 33//1 34//1
f 16//1 17//1 33//1 34//1
f 17//1 18//1 33//1 34//1
f 18//1 19//1 33//1 34//1
f 19//1 20//1 33//1 34//1
f 20//1 21//1 33//1 34//1
f 21//1 22//1 33//1 34//1
f 22//1 23//1 33//1 34//1
f 23//1 24//1 33//1 34//1
f 24//1 25//1 33//1 34//1
f 25//1 26//1 33//1 34//1
f 26//1 27//1 33//1 34//1
f 27//1 28//1 33//1 34//1
f 28//1 29//1 33//1 34//1
f 29//1 30//1 33//1 34//1
f 30//1 31//1 33//1 34//1
f 31//1 32//1 33//1 34//1
f 32//1 33//1 33//1 34//1
