# Blender 4.2.6 LTS
# www.blender.org
mtllib 0055.mtl
o Flower
v 0.951056 -0.262866 0.000000
v 0.425325 0.262866 0.000000
v 0.224514 -0.262866 -1.000000
v 0.062054 0.262866 -0.500000
v -0.951056 -0.262866 -0.618034
v -0.525731 0.262866 -0.309017
v -0.951056 -0.262866 0.618034
v -0.525731 0.262866 0.309017
v 0.224514 -0.262866 1.000000
v 0.062054 0.262866 0.500000
vn -0.6290 -0.6290 0.4570
vn 0.2402 -0.6290 0.7394
vn 0.7774 -0.6290 -0.0000
vn 0.2402 -0.6290 -0.7394
vn -0.6290 -0.6290 -0.4570
s 0
f 1//1 2//1 4//1 3//1
f 3//2 4//2 6//2 5//2
f 5//3 6//3 8//3 7//3
f 7//4 8//4 10//4 9//4
f 9//5 10//5 2//5 1//5
