# Blender 4.2.6 LTS
# www.blender.org
mtllib 0068.mtl
o Cube
v -0.600000 -0.250000 0.500000
v -1.000000 -0.150000 0.500000
v -1.000000 -0.250000 0.300000
v -0.600000 0.250000 0.500000
v -1.000000 0.250000 0.300000
v -1.000000 0.150000 0.500000
v -1.000000 -0.250000 -0.300000
v -1.000000 -0.150000 -0.500000
v -0.600000 -0.250000 -0.500000
v -0.600000 0.250000 -0.500000
v -1.000000 0.150000 -0.500000
v -1.000000 0.250000 -0.300000
v 1.000000 -0.250000 0.300000
v 1.000000 -0.150000 0.500000
v 0.600000 -0.250000 0.500000
v 0.600000 0.250000 0.500000
v 1.000000 0.150000 0.500000
v 1.000000 0.250000 0.300000
v 0.600000 -0.250000 -0.500000
v 1.000000 -0.150000 -0.500000
v 1.000000 -0.250000 -0.300000
v 1.000000 0.250000 -0.300000
v 1.000000 0.150000 -0.500000
v 0.600000 0.250000 -0.500000
vn -0.0000 -0.0000 1.0000
vn 1.0000 -0.0000 -0.0000
vn -0.0000 1.0000 -0.0000
vn -1.0000 -0.0000 -0.0000
vn -0.0000 -0.0000 -1.0000
vn -0.2182 -0.8729 0.4364
vn -0.2182 0.8729 0.4364
vn -0.2182 -0.8729 -0.4364
vn -0.2182 0.8729 -0.4364
vn 0.2182 -0.8729 0.4364
vn 0.2182 0.8729 0.4364
vn 0.2182 -0.8729 -0.4364
vn 0.2182 0.8729 -0.4364
vn -0.0000 -1.0000 -0.0000
s 0
f 15//1 14//1 17//1 16//1 4//1 6//1 2//1 1//1
f 21//2 20//2 23//2 22//2 18//2 17//2 14//2 13//2
f 22//3 24//3 10//3 12//3 5//3 4//3 16//3 18//3
f 3//4 2//4 6//4 5//4 12//4 11//4 8//4 7//4
f 9//5 8//5 11//5 10//5 24//5 23//5 20//5 19//5
f 1//6 2//6 3//6
f 4//7 5//7 6//7
f 7//8 8//8 9//8
f 10//9 11//9 12//9
f 13//10 14//10 15//10
f 16//11 17//11 18//11
f 19//12 20//12 21//12
f 22//13 23//13 24//13
f 7//14 9//14 19//14 21//14 13//14 15//14 1//14 3//14
