# Blender 4.2.6 LTS
# www.blender.org
mtllib 0080.mtl
o CrescentMoon
v 1.000000 0.000000 0.000000
v 0.980785 0.000000 -0.195090
v 0.923880 0.000000 -0.382683
v 0.831470 0.000000 -0.555570
v 0.707107 0.000000 -0.707107
v 0.555570 0.000000 -0.831470
v 0.382683 0.000000 -0.923880
v 0.195090 0.000000 -0.980785
v 0.000000 0.000000 -1.000000
v -0.195090 0.000000 -0.980785
v -0.382683 0.000000 -0.923880
v -0.555570 0.000000 -0.831470
v -0.707107 0.000000 -0.707107
v -0.831470 0.000000 -0.555570
v -0.923880 0.000000 -0.382683
v -0.980785 0.000000 -0.195090
v -1.000000 0.000000 -0.000000
v -0.980785 0.000000 0.195090
v -0.923880 0.000000 0.382683
v -0.831470 0.000000 0.555570
v -0.707107 0.000000 0.707107
v -0.555570 0.000000 0.831470
v -0.382683 0.000000 0.923880
v -0.195090 0.000000 0.980785
v -0.000000 0.000000 1.000000
v 0.195090 0.000000 0.980785
v 0.382683 0.000000 0.923880
v 0.555570 0.000000 0.831470
v 0.707107 0.000000 0.707107
v 0.831470 0.000000 0.555570
v 0.923880 0.000000 0.382683
v 0.980785 0.000000 0.195090
v 0.700000 0.000000 0.000000
v 0.686550 0.000000 -0.136563
v 0.646716 0.000000 -0.267878
v 0.582029 0.000000 -0.388899
v 0.494975 0.000000 -0.494975
v 0.388899 0.000000 -0.582029
v 0.267878 0.000000 -0.646716
v 0.136563 0.000000 -0.686550
v 0.000000 0.000000 -0.700000
v -0.136563 0.000000 -0.686550
v -0.267878 0.000000 -0.646716
v -0.388899 0.000000 -0.582029
v -0.494975 0.000000 -0.494975
v -0.582029 0.000000 -0.388899
v -0.646716 0.000000 -0.267878
v -0.686550 0.000000 -0.136563
v -0.700000 0.000000 -0.000000
v -0.686550 0.000000 0.136563
v -0.646716 0.000000 0.267878
v -0.582029 0.000000 0.388899
v -0.494975 0.000000 0.494975
v -0.388899 0.000000 0.582029
v -0.267878 0.000000 0.646716
v -0.136563 0.000000 0.686550
v -0.000000 0.000000 0.700000
v 0.136563 0.000000 0.686550
v 0.267878 0.000000 0.646716
v 0.388899 0.000000 0.582029
v 0.494975 0.000000 0.494975
v 0.582029 0.000000 0.388899
v 0.646716 0.000000 0.267878
v 0.686550 0.000000 0.136563
vn -0.0000 1.0000 -0.0000
s 0
f 1//1 2//1 34//1 33//1
f 2//1 3//1 35//1 34//1
f 3//1 4//1 36//1 35//1
f 4//1 5//1 37//1 36//1
f 5//1 6//1 38//1 37//1
f 6//1 7//1 39//1 38//1
f 7//1 8//1 40//1 39//1
f 8//1 9//1 41//1 40//1
f 9//1 10//1 42//1 41//1
f 10//1 11//1 43//1 42//1
f 11//1 12//1 44//1 43//1
f 12//1 13//1 45//1 44//1
f 13//1 14//1 46//1 45//1
f 14//1 15//1 47//1 46//1
f 15//1 16//1 48//1 47//1
f 16//1 17//1 49//1 48//1
f 17//1 18//1 50//1 49//1
f 18//1 19//1 51//1 50//1
f 19//1 20//1 52//1 51//1
f 20//1 21//1 53//1 52//1
f 21//1 22//1 54//1 53//1
f 22//1 23//1 55//1 54//1
f 23//1 24//1 56//1 55//1
f 24//1 25//1 57//1 56//1
f 25//1 26//1 58//1 57//1
f 26//1 27//1 59//1 58//1
f 27//1 28//1 60//1 59//1
f 28//1 29//1 61//1 60//1
f 29//1 30//1 62//1 61//1
f 30//1 31//1 63//1 62//1
f 31//1 32//1 64//1 63//1
f 32//1 1//1 33//1 64//1
