# Blender 4.2.6 LTS
# www.blender.org
mtllib 4.mtl
o PizzaSlice
v -0.859156 -0.243839 0.484189
v -0.962418 -0.293839 0.578910
v -0.841474 -0.243839 0.528910
v 0.840864 -0.243839 0.528910
v 1.002227 -0.293839 0.578910
v 0.846161 -0.243839 0.493555
v -0.316200 -0.243839 -0.601724
v -0.258484 -0.243839 -0.611090
v -0.307537 -0.293839 -0.730854
v -0.842129 0.013309 0.533409
v -0.826191 0.058768 0.528910
v -0.859156 0.008768 0.484189
v 0.846161 0.008768 0.493555
v 0.820768 0.058768 0.528910
v 0.845664 0.016811 0.547267
v -0.316200 0.008768 -0.601724
v -0.277318 0.058768 -0.568792
v -0.258484 0.008768 -0.611090
v -0.784394 0.227566 0.676929
v -0.713981 0.271478 0.691167
v -0.731038 0.249118 0.624085
v 0.713981 0.271478 0.691167
v 0.784394 0.227693 0.676675
v 0.725823 0.249118 0.624085
v -0.646633 -0.411837 0.374321
v -0.624834 -0.416483 0.422290
v -0.750761 -0.460901 0.445769
v 0.607174 -0.415734 0.458380
v 0.615498 -0.411008 0.424535
v 0.781124 -0.457467 0.486299
v -0.277155 -0.412431 -0.357198
v -0.268279 -0.462811 -0.482714
v -0.217366 -0.412335 -0.367645
v -0.660588 -0.212470 0.476704
v -0.633782 -0.166968 0.553998
v -0.726679 -0.119935 0.546596
v 0.731411 -0.116896 0.605768
v 0.638739 -0.158053 0.620571
v 0.651183 -0.202591 0.552790
v -0.274727 -0.162736 -0.356018
v -0.220102 -0.161652 -0.364903
v -0.236629 -0.114133 -0.322828
v -0.755495 0.149477 0.824988
v -0.703811 0.126234 0.877602
v -0.713981 0.182036 0.870052
v 0.713981 0.182036 0.870052
v 0.698906 0.122834 0.880969
v 0.755948 0.145774 0.832224
vn 0.7071 -0.0000 -0.7071
vn -0.0000 0.4472 -0.8944
vn -0.0000 1.0000 -0.0000
vn -0.0028 0.0014 1.0000
vn -0.8705 -0.2929 0.3954
vn 0.0370 0.5015 -0.8644
vn -0.0169 -0.7132 0.7008
vn -0.7022 -0.1483 0.6964
vn 0.0099 -0.9984 -0.0557
vn 0.0022 -1.0000 0.0032
vn 0.8988 -0.2166 0.3810
vn 0.8988 -0.0765 0.4316
vn -0.0000 0.8944 0.4472
vn -0.3319 0.9341 0.1312
vn 0.2837 0.9580 0.0425
vn -0.0591 0.9296 -0.3639
vn -0.8973 0.3422 0.2788
vn 0.8704 0.4880 -0.0650
vn -0.1266 0.6124 -0.7803
vn -0.4996 0.8519 -0.1570
vn 0.4881 0.8502 -0.1972
vn 0.2875 -0.9319 -0.2209
vn -0.2013 -0.9621 -0.1839
vn 0.0671 -0.9243 0.3757
vn -0.4083 -0.7177 0.5641
vn 0.4105 -0.7257 0.5522
vn 0.1369 -0.6296 0.7648
vn -0.7212 -0.0378 0.6917
vn 0.6559 -0.0279 0.7544
vn -0.6325 0.7071 -0.3162
vn -0.0000 0.7071 0.7071
vn 0.5000 0.7071 -0.5000
vn -0.6357 0.7035 -0.3178
vn 0.5356 0.6528 -0.5357
vn -0.9379 -0.0043 0.3468
vn 0.9978 -0.0117 0.0660
vn -0.1602 -0.0000 -0.9871
vn -0.7850 0.5068 -0.3563
vn -0.0000 0.9487 -0.3162
vn 0.7468 0.5217 -0.4125
vn 0.5979 -0.7401 0.3080
vn 0.0247 -0.5020 -0.8645
vn -0.4341 -0.7704 0.4669
vn 0.6368 -0.7302 0.2478
vn -0.5256 -0.7152 0.4607
vn 0.9524 0.0892 0.2914
vn -0.6671 -0.1822 0.7224
vn 0.1667 -0.0076 0.9860
vn -0.5384 -0.6580 0.5265
vn -0.0010 0.1586 0.9873
vn 0.5163 -0.6146 0.5964
vn -0.6514 0.6503 0.3908
vn 0.6477 0.6543 0.3903
vn -0.8944 -0.0000 -0.4472
s 0
f 6//1 8//1 18//1 13//1
f 11//2 21//2 24//2 14//2
f 2//3 5//3 9//3
f 11//3 14//3 17//3
f 3//4 4//4 13//4 14//4 11//4 12//4
f 19//5 10//5 36//5 43//5
f 26//6 34//6 35//6 38//6 39//6 28//6
f 35//7 38//7 47//7 44//7
f 29//8 39//8 41//8 33//8
f 35//9 42//9 38//9
f 27//10 32//10 30//10
f 15//11 23//11 48//11 37//11
f 31//12 40//12 34//12 25//12
f 22//13 20//13 45//13 46//13
f 1//14 2//14 3//14
f 4//15 5//15 6//15
f 7//16 8//16 9//16
f 10//17 11//17 12//17
f 13//18 14//18 15//18
f 16//19 17//19 18//19
f 19//20 20//20 21//20
f 22//21 23//21 24//21
f 25//22 26//22 27//22
f 28//23 29//23 30//23
f 31//24 32//24 33//24
f 34//25 35//25 36//25
f 37//26 38//26 39//26
f 40//27 41//27 42//27
f 43//28 44//28 45//28
f 46//29 47//29 48//29
f 1//30 7//30 9//30 2//30
f 2//31 5//31 4//31 3//31
f 5//32 9//32 8//32 6//32
f 11//33 17//33 16//33 12//33
f 13//34 18//34 17//34 14//34
f 3//35 10//35 12//35 1//35
f 6//36 13//36 15//36 4//36
f 7//37 16//37 18//37 8//37
f 10//38 19//38 21//38 11//38
f 20//39 22//39 24//39 21//39
f 14//40 24//40 23//40 15//40
f 27//41 32//41 31//41 25//41
f 26//42 28//42 30//42 27//42
f 29//43 33//43 32//43 30//43
f 34//44 40//44 42//44 35//44
f 38//45 42//45 41//45 39//45
f 25//46 34//46 36//46 26//46
f 28//47 37//47 39//47 29//47
f 33//48 41//48 40//48 31//48
f 35//49 44//49 43//49 36//49
f 44//50 47//50 46//50 45//50
f 37//51 48//51 47//51 38//51
f 19//52 43//52 45//52 20//52
f 22//53 46//53 48//53 23//53
f 7//54 1//54 12//54 16//54
