# Blender 4.2.6 LTS
# www.blender.org
mtllib 0.mtl
o MousePad
v -1.000000 -0.033333 0.666667
v 1.000000 -0.033333 0.666667
v 1.000000 -0.033333 -0.666667
v -1.000000 -0.033333 -0.666667
v -1.000000 0.033333 0.666667
v 1.000000 0.033333 0.666667
v 1.000000 0.033333 -0.666667
v -1.000000 0.033333 -0.666667
vn -0.0000 1.0000 -0.0000
vn -0.0000 -0.0000 1.0000
vn 1.0000 -0.0000 -0.0000
vn -0.0000 -0.0000 -1.0000
vn -1.0000 -0.0000 -0.0000
s 0
usemtl MousePadMaterial
f 1//1 2//1 3//1 4//1
f 5//1 6//1 7//1 8//1
f 1//2 2//2 6//2 5//2
f 2//3 3//3 7//3 6//3
f 3//4 4//4 8//4 7//4
f 4//5 1//5 5//5 8//5
