# Blender 4.2.6 LTS
# www.blender.org
mtllib exp_full_task.mtl
o Cylinder
v 0.000000 -1.000000 -0.700000
v 0.000000 1.000000 -0.700000
v 0.136563 -1.000000 -0.686550
v 0.136563 1.000000 -0.686550
v 0.267878 -1.000000 -0.646716
v 0.267878 1.000000 -0.646716
v 0.388899 -1.000000 -0.582029
v 0.388899 1.000000 -0.582029
v 0.494975 -1.000000 -0.494975
v 0.494975 1.000000 -0.494975
v 0.582029 -1.000000 -0.388899
v 0.582029 1.000000 -0.388899
v 0.646716 -1.000000 -0.267878
v 0.646716 1.000000 -0.267878
v 0.686550 -1.000000 -0.136563
v 0.686550 1.000000 -0.136563
v 0.700000 -1.000000 0.000000
v 0.700000 1.000000 0.000000
v 0.686550 -1.000000 0.136563
v 0.686550 1.000000 0.136563
v 0.646716 -1.000000 0.267878
v 0.646716 1.000000 0.267878
v 0.582029 -1.000000 0.388899
v 0.582029 1.000000 0.388899
v 0.494975 -1.000000 0.494975
v 0.494975 1.000000 0.494975
v 0.388899 -1.000000 0.582029
v 0.388899 1.000000 0.582029
v 0.267878 -1.000000 0.646716
v 0.267878 1.000000 0.646716
v 0.136563 -1.000000 0.686550
v 0.136563 1.000000 0.686550
v 0.000000 -1.000000 0.700000
v 0.000000 1.000000 0.700000
v -0.136563 -1.000000 0.686550
v -0.136563 1.000000 0.686550
v -0.267878 -1.000000 0.646716
v -0.267878 1.000000 0.646716
v -0.388899 -1.000000 0.582029
v -0.388899 1.000000 0.582029
v -0.494975 -1.000000 0.494975
v -0.494975 1.000000 0.494975
v -0.582029 -1.000000 0.388899
v -0.582029 1.000000 0.388899
v -0.646716 -1.000000 0.267878
v -0.646716 1.000000 0.267878
v -0.686550 -1.000000 0.136563
v -0.686550 1.000000 0.136563
v -0.700000 -1.000000 0.000000
v -0.700000 1.000000 0.000000
v -0.686550 -1.000000 -0.136563
v -0.686550 1.000000 -0.136563
v -0.646716 -1.000000 -0.267878
v -0.646716 1.000000 -0.267878
v -0.582029 -1.000000 -0.388899
v -0.582029 1.000000 -0.388899
v -0.494975 -1.000000 -0.494975
v -0.494975 1.000000 -0.494975
v -0.388899 -1.000000 -0.582029
v -0.388899 1.000000 -0.582029
v -0.267878 -1.000000 -0.646716
v -0.267878 1.000000 -0.646716
v -0.136563 -1.000000 -0.686550
v -0.136563 1.000000 -0.686550
v -0.498882 1.000000 -0.333342
v -0.333342 1.000000 -0.498882
v -0.424264 1.000000 -0.424264
v -0.117054 1.000000 -0.588471
v -0.229610 1.000000 -0.554328
v 0.117054 1.000000 -0.588471
v 0.000000 1.000000 -0.600000
v -0.600000 1.000000 0.000000
v -0.588471 1.000000 -0.117054
v -0.588471 1.000000 0.117054
v -0.498882 1.000000 0.333342
v -0.333342 1.000000 0.498882
v -0.424264 1.000000 0.424264
v -0.554328 1.000000 0.229610
v -0.117054 1.000000 0.588471
v 0.117054 1.000000 0.588471
v 0.000000 1.000000 0.600000
v 0.424264 1.000000 0.424264
v 0.333342 1.000000 0.498882
v 0.498882 1.000000 0.333342
v 0.229610 1.000000 0.554328
v 0.333342 1.000000 -0.498882
v 0.498882 1.000000 -0.333342
v 0.424264 1.000000 -0.424264
v 0.600000 1.000000 0.000000
v 0.588471 1.000000 0.117054
v 0.588471 1.000000 -0.117054
v 0.554328 1.000000 -0.229610
v -0.554328 1.000000 -0.229610
v 0.229610 1.000000 -0.554328
v -0.229610 1.000000 0.554328
v 0.554328 1.000000 0.229610
v 0.000000 -1.000000 -0.600000
v 0.229610 -1.000000 -0.554328
v 0.117054 -1.000000 -0.588471
v 0.424264 -1.000000 -0.424264
v 0.498882 -1.000000 -0.333342
v 0.554328 -1.000000 -0.229610
v 0.333342 -1.000000 -0.498882
v 0.229610 -1.000000 0.554328
v 0.424264 -1.000000 0.424264
v 0.333342 -1.000000 0.498882
v 0.554328 -1.000000 0.229610
v 0.498882 -1.000000 0.333342
v 0.600000 -1.000000 0.000000
v 0.588471 -1.000000 0.117054
v -0.554328 -1.000000 0.229610
v -0.424264 -1.000000 0.424264
v -0.498882 -1.000000 0.333342
v -0.229610 -1.000000 0.554328
v -0.333342 -1.000000 0.498882
v 0.000000 -1.000000 0.600000
v -0.117054 -1.000000 0.588471
v -0.600000 -1.000000 0.000000
v -0.554328 -1.000000 -0.229610
v -0.588471 -1.000000 -0.117054
v -0.424264 -1.000000 -0.424264
v -0.229610 -1.000000 -0.554328
v -0.333342 -1.000000 -0.498882
v -0.498882 -1.000000 -0.333342
v 0.588471 -1.000000 -0.117054
v 0.117054 -1.000000 0.588471
v -0.588471 -1.000000 0.117054
v -0.117054 -1.000000 -0.588471
vn 0.0980 -0.0000 -0.9952
vn 0.2903 -0.0000 -0.9569
vn 0.4714 -0.0000 -0.8819
vn 0.6344 -0.0000 -0.7730
vn 0.7730 -0.0000 -0.6344
vn 0.8819 -0.0000 -0.4714
vn 0.9569 -0.0000 -0.2903
vn 0.9952 -0.0000 -0.0980
vn 0.9952 -0.0000 0.0980
vn 0.9569 -0.0000 0.2903
vn 0.8819 -0.0000 0.4714
vn 0.7730 -0.0000 0.6344
vn 0.6344 -0.0000 0.7730
vn 0.4714 -0.0000 0.8819
vn 0.2903 -0.0000 0.9569
vn 0.0980 -0.0000 0.9952
vn -0.0980 -0.0000 0.9952
vn -0.2903 -0.0000 0.9569
vn -0.4714 -0.0000 0.8819
vn -0.6344 -0.0000 0.7730
vn -0.7730 -0.0000 0.6344
vn -0.8819 -0.0000 0.4714
vn -0.9569 -0.0000 0.2903
vn -0.9952 -0.0000 0.0980
vn -0.9952 -0.0000 -0.0980
vn -0.9569 -0.0000 -0.2903
vn -0.8819 -0.0000 -0.4714
vn -0.7730 -0.0000 -0.6344
vn -0.6344 -0.0000 -0.7730
vn -0.4714 -0.0000 -0.8819
vn -0.0000 1.0000 -0.0000
vn -0.2903 -0.0000 -0.9569
vn -0.0980 -0.0000 -0.9952
vn -0.0000 -1.0000 -0.0000
vt 1.000000 0.500000
vt 1.000000 1.000000
vt 0.968750 1.000000
vt 0.968750 0.500000
vt 0.937500 1.000000
vt 0.937500 0.500000
vt 0.906250 1.000000
vt 0.906250 0.500000
vt 0.875000 1.000000
vt 0.875000 0.500000
vt 0.843750 1.000000
vt 0.843750 0.500000
vt 0.812500 1.000000
vt 0.812500 0.500000
vt 0.781250 1.000000
vt 0.781250 0.500000
vt 0.750000 1.000000
vt 0.750000 0.500000
vt 0.718750 1.000000
vt 0.718750 0.500000
vt 0.687500 1.000000
vt 0.687500 0.500000
vt 0.656250 1.000000
vt 0.656250 0.500000
vt 0.625000 1.000000
vt 0.625000 0.500000
vt 0.593750 1.000000
vt 0.593750 0.500000
vt 0.562500 1.000000
vt 0.562500 0.500000
vt 0.531250 1.000000
vt 0.531250 0.500000
vt 0.500000 1.000000
vt 0.500000 0.500000
vt 0.468750 1.000000
vt 0.468750 0.500000
vt 0.437500 1.000000
vt 0.437500 0.500000
vt 0.406250 1.000000
vt 0.406250 0.500000
vt 0.375000 1.000000
vt 0.375000 0.500000
vt 0.343750 1.000000
vt 0.343750 0.500000
vt 0.312500 1.000000
vt 0.312500 0.500000
vt 0.281250 1.000000
vt 0.281250 0.500000
vt 0.250000 1.000000
vt 0.250000 0.500000
vt 0.218750 1.000000
vt 0.218750 0.500000
vt 0.187500 1.000000
vt 0.187500 0.500000
vt 0.156250 1.000000
vt 0.156250 0.500000
vt 0.125000 1.000000
vt 0.125000 0.500000
vt 0.093750 1.000000
vt 0.093750 0.500000
vt 0.062500 1.000000
vt 0.062500 0.500000
vt 0.171277 0.059945
vt 0.158156 0.028269
vt 0.203178 0.014612
vt 0.250000 0.010000
vt 0.296822 0.014612
vt 0.341844 0.028269
vt 0.383337 0.050447
vt 0.419706 0.080294
vt 0.449553 0.116663
vt 0.471731 0.158156
vt 0.440055 0.171277
vt 0.421045 0.135711
vt 0.395462 0.104538
vt 0.364289 0.078955
vt 0.328723 0.059945
vt 0.290133 0.048238
vt 0.250000 0.044286
vt 0.209867 0.048238
vt 0.485388 0.203178
vt 0.490000 0.250000
vt 0.485388 0.296822
vt 0.471731 0.341844
vt 0.449553 0.383337
vt 0.419706 0.419706
vt 0.383337 0.449553
vt 0.341844 0.471731
vt 0.296822 0.485388
vt 0.250000 0.490000
vt 0.203178 0.485388
vt 0.158156 0.471731
vt 0.116663 0.449553
vt 0.080294 0.419706
vt 0.050447 0.383337
vt 0.028269 0.341844
vt 0.014612 0.296822
vt 0.010000 0.250000
vt 0.014612 0.203178
vt 0.028269 0.158156
vt 0.050447 0.116663
vt 0.080294 0.080294
vt 0.116663 0.050447
vt 0.135711 0.078955
vt 0.104538 0.104538
vt 0.078955 0.135711
vt 0.059945 0.171277
vt 0.048238 0.209867
vt 0.044286 0.250000
vt 0.048238 0.290133
vt 0.059945 0.328723
vt 0.078955 0.364289
vt 0.104538 0.395462
vt 0.135711 0.421045
vt 0.171277 0.440055
vt 0.209867 0.451762
vt 0.250000 0.455714
vt 0.290133 0.451762
vt 0.328723 0.440055
vt 0.364289 0.421045
vt 0.395462 0.395462
vt 0.421045 0.364289
vt 0.440055 0.328723
vt 0.451762 0.290133
vt 0.455714 0.250000
vt 0.451762 0.209867
vt 0.031250 1.000000
vt 0.031250 0.500000
vt 0.000000 1.000000
vt 0.000000 0.500000
vt 0.864289 0.421045
vt 0.883337 0.449553
vt 0.919706 0.419706
vt 0.949553 0.383337
vt 0.971731 0.341844
vt 0.985388 0.296822
vt 0.990000 0.250000
vt 0.985388 0.203178
vt 0.971731 0.158156
vt 0.949553 0.116663
vt 0.919706 0.080294
vt 0.883337 0.050447
vt 0.841844 0.028269
vt 0.796822 0.014612
vt 0.750000 0.010000
vt 0.703178 0.014612
vt 0.658156 0.028269
vt 0.616663 0.050447
vt 0.580294 0.080294
vt 0.550447 0.116663
vt 0.528269 0.158156
vt 0.514612 0.203178
vt 0.510000 0.250000
vt 0.514612 0.296822
vt 0.528269 0.341844
vt 0.550447 0.383337
vt 0.578955 0.364289
vt 0.559945 0.328723
vt 0.548238 0.290133
vt 0.544286 0.250000
vt 0.548238 0.209867
vt 0.559945 0.171277
vt 0.578955 0.135711
vt 0.604538 0.104538
vt 0.635711 0.078955
vt 0.671277 0.059945
vt 0.709867 0.048238
vt 0.750000 0.044286
vt 0.790133 0.048238
vt 0.828724 0.059945
vt 0.864289 0.078955
vt 0.895462 0.104538
vt 0.921045 0.135711
vt 0.940055 0.171277
vt 0.951762 0.209867
vt 0.955714 0.250000
vt 0.951762 0.290133
vt 0.940055 0.328723
vt 0.921045 0.364289
vt 0.895462 0.395462
vt 0.580294 0.419706
vt 0.616663 0.449553
vt 0.658156 0.471731
vt 0.703178 0.485388
vt 0.750000 0.490000
vt 0.796822 0.485388
vt 0.841844 0.471731
vt 0.828724 0.440055
vt 0.790133 0.451762
vt 0.750000 0.455714
vt 0.709867 0.451762
vt 0.671276 0.440055
vt 0.635711 0.421045
vt 0.604538 0.395462
vt 0.968750 0.501244
vt 0.968750 0.998756
vt 1.000000 0.998756
vt 1.000000 0.501244
vt 0.937500 0.501244
vt 0.937500 0.998756
vt 0.906250 0.501244
vt 0.906250 0.998756
vt 0.875000 0.501244
vt 0.875000 0.998756
vt 0.843750 0.998756
vt 0.843750 0.501244
vt 0.812500 0.998756
vt 0.812500 0.501244
vt 0.781250 0.998756
vt 0.781250 0.501244
vt 0.750000 0.998756
vt 0.750000 0.501244
vt 0.718750 0.998756
vt 0.718750 0.501244
vt 0.687500 0.998756
vt 0.687500 0.501244
vt 0.656250 0.998756
vt 0.656250 0.501244
vt 0.625000 0.998756
vt 0.625000 0.501244
vt 0.593750 0.998756
vt 0.593750 0.501244
vt 0.562500 0.998756
vt 0.562500 0.501244
vt 0.531250 0.998756
vt 0.531250 0.501244
vt 0.500000 0.998756
vt 0.500000 0.501244
vt 0.468750 0.998756
vt 0.468750 0.501244
vt 0.437500 0.998756
vt 0.437500 0.501244
vt 0.406250 0.998756
vt 0.406250 0.501244
vt 0.375000 0.998756
vt 0.375000 0.501244
vt 0.343750 0.501244
vt 0.343750 0.998756
vt 0.312500 0.501244
vt 0.312500 0.998756
vt 0.281250 0.501244
vt 0.281250 0.998756
vt 0.250000 0.501244
vt 0.250000 0.998756
vt 0.218750 0.501244
vt 0.218750 0.998756
vt 0.187500 0.501244
vt 0.187500 0.998756
vt 0.156250 0.501244
vt 0.156250 0.998756
vt 0.125000 0.501244
vt 0.125000 0.998756
vt 0.093750 0.501244
vt 0.093750 0.998756
vt 0.062500 0.501244
vt 0.062500 0.998756
vt 0.031250 0.501244
vt 0.031250 0.998756
vt 0.000000 0.501244
vt 0.000000 0.998756
s 0
f 1/1/1 2/2/1 4/3/1 3/4/1
f 3/4/2 4/3/2 6/5/2 5/6/2
f 5/6/3 6/5/3 8/7/3 7/8/3
f 7/8/4 8/7/4 10/9/4 9/10/4
f 9/10/5 10/9/5 12/11/5 11/12/5
f 11/12/6 12/11/6 14/13/6 13/14/6
f 13/14/7 14/13/7 16/15/7 15/16/7
f 15/16/8 16/15/8 18/17/8 17/18/8
f 17/18/9 18/17/9 20/19/9 19/20/9
f 19/20/10 20/19/10 22/21/10 21/22/10
f 21/22/11 22/21/11 24/23/11 23/24/11
f 23/24/12 24/23/12 26/25/12 25/26/12
f 25/26/13 26/25/13 28/27/13 27/28/13
f 27/28/14 28/27/14 30/29/14 29/30/14
f 29/30/15 30/29/15 32/31/15 31/32/15
f 31/32/16 32/31/16 34/33/16 33/34/16
f 33/34/17 34/33/17 36/35/17 35/36/17
f 35/36/18 36/35/18 38/37/18 37/38/18
f 37/38/19 38/37/19 40/39/19 39/40/19
f 39/40/20 40/39/20 42/41/20 41/42/20
f 41/42/21 42/41/21 44/43/21 43/44/21
f 43/44/22 44/43/22 46/45/22 45/46/22
f 45/46/23 46/45/23 48/47/23 47/48/23
f 47/48/24 48/47/24 50/49/24 49/50/24
f 49/50/25 50/49/25 52/51/25 51/52/25
f 51/52/26 52/51/26 54/53/26 53/54/26
f 53/54/27 54/53/27 56/55/27 55/56/27
f 55/56/28 56/55/28 58/57/28 57/58/28
f 57/58/29 58/57/29 60/59/29 59/60/29
f 59/60/30 60/59/30 62/61/30 61/62/30
f 95/63/31 38/64/31 36/65/31 34/66/31 32/67/31 30/68/31 28/69/31 26/70/31 24/71/31 22/72/31 96/73/31 84/74/31 82/75/31 83/76/31 85/77/31 80/78/31 81/79/31 79/80/31
f 96/73/31 22/72/31 20/81/31 18/82/31 16/83/31 14/84/31 12/85/31 10/86/31 8/87/31 6/88/31 4/89/31 2/90/31 64/91/31 62/92/31 60/93/31 58/94/31 56/95/31 54/96/31 52/97/31 50/98/31 48/99/31 46/100/31 44/101/31 42/102/31 40/103/31 38/64/31 95/63/31 76/104/31 77/105/31 75/106/31 78/107/31 74/108/31 72/109/31 73/110/31 93/111/31 65/112/31 67/113/31 66/114/31 69/115/31 68/116/31 71/117/31 70/118/31 94/119/31 86/120/31 88/121/31 87/122/31 92/123/31 91/124/31 89/125/31 90/126/31
f 61/62/32 62/61/32 64/127/32 63/128/32
f 63/128/33 64/127/33 2/129/33 1/130/33
f 103/131/34 7/132/34 9/133/34 11/134/34 13/135/34 15/136/34 17/137/34 19/138/34 21/139/34 23/140/34 25/141/34 27/142/34 29/143/34 31/144/34 33/145/34 35/146/34 37/147/34 39/148/34 41/149/34 43/150/34 45/151/34 47/152/34 49/153/34 51/154/34 53/155/34 55/156/34 124/157/34 119/158/34 120/159/34 118/160/34 127/161/34 111/162/34 113/163/34 112/164/34 115/165/34 114/166/34 117/167/34 116/168/34 126/169/34 104/170/34 106/171/34 105/172/34 108/173/34 107/174/34 110/175/34 109/176/34 125/177/34 102/178/34 101/179/34 100/180/34
f 124/157/34 55/156/34 57/181/34 59/182/34 61/183/34 63/184/34 1/185/34 3/186/34 5/187/34 7/132/34 103/131/34 98/188/34 99/189/34 97/190/34 128/191/34 122/192/34 123/193/34 121/194/34
f 99/195/17 70/196/17 71/197/17 97/198/17
f 98/199/18 94/200/18 70/196/18 99/195/18
f 103/201/19 86/202/19 94/200/19 98/199/19
f 100/203/20 88/204/20 86/202/20 103/201/20
f 87/205/21 88/204/21 100/203/21 101/206/21
f 92/207/22 87/205/22 101/206/22 102/208/22
f 91/209/23 92/207/23 102/208/23 125/210/23
f 89/211/24 91/209/24 125/210/24 109/212/24
f 90/213/25 89/211/25 109/212/25 110/214/25
f 96/215/26 90/213/26 110/214/26 107/216/26
f 84/217/27 96/215/27 107/216/27 108/218/27
f 82/219/28 84/217/28 108/218/28 105/220/28
f 83/221/29 82/219/29 105/220/29 106/222/29
f 85/223/30 83/221/30 106/222/30 104/224/30
f 80/225/32 85/223/32 104/224/32 126/226/32
f 81/227/33 80/225/33 126/226/33 116/228/33
f 79/229/1 81/227/1 116/228/1 117/230/1
f 95/231/2 79/229/2 117/230/2 114/232/2
f 76/233/3 95/231/3 114/232/3 115/234/3
f 77/235/4 76/233/4 115/234/4 112/236/4
f 113/237/5 75/238/5 77/235/5 112/236/5
f 111/239/6 78/240/6 75/238/6 113/237/6
f 127/241/7 74/242/7 78/240/7 111/239/7
f 118/243/8 72/244/8 74/242/8 127/241/8
f 120/245/9 73/246/9 72/244/9 118/243/9
f 119/247/10 93/248/10 73/246/10 120/245/10
f 124/249/11 65/250/11 93/248/11 119/247/11
f 121/251/12 67/252/12 65/250/12 124/249/12
f 123/253/13 66/254/13 67/252/13 121/251/13
f 122/255/14 69/256/14 66/254/14 123/253/14
f 128/257/15 68/258/15 69/256/15 122/255/15
f 97/259/16 71/260/16 68/258/16 128/257/16
