# Blender 4.2.6 LTS
# www.blender.org
mtllib 1.mtl
o SmoothWedge
v -1.000000 -0.500000 0.500000
v 1.000000 -0.500000 0.500000
v 1.000000 -0.500000 0.000000
v -1.000000 -0.500000 -0.500000
v 0.500000 0.000000 0.250000
v 0.500000 0.000000 -0.250000
v 1.000000 0.500000 0.000000
vn -0.0000 1.0000 -0.0000
vn -0.0000 0.4472 0.8944
vn 1.0000 -0.0000 -0.0000
vn 0.4472 -0.0000 -0.8944
vn -0.2357 0.2357 0.9428
vn -0.3162 0.9487 -0.0000
s 0
f 1//1 2//1 3//1 4//1
f 1//2 2//2 7//2
f 2//3 3//3 7//3
f 3//4 6//4 7//4
f 4//5 3//5 6//5
f 4//6 1//6 5//6
f 5//6 6//6 4//6
