# Blender 4.2.6 LTS
# www.blender.org
mtllib 4.mtl
o SmoothWedge
v -1.000000 -0.500000 0.500000
v 1.000000 -0.500000 0.500000
v 1.000000 -0.100000 0.000000
v -1.000000 -0.500000 -0.500000
v 0.800000 0.500000 0.300000
v 0.800000 0.500000 -0.300000
v 0.200000 0.400000 0.000000
vn 0.1278 -0.9583 -0.2556
vn -0.0000 0.1961 0.9806
vn 0.9565 0.2277 0.1822
vn 0.9487 0.3162 -0.0000
vn 0.2923 -0.3480 -0.8908
vn -0.6000 0.8000 -0.0000
vn -0.3786 0.7809 -0.4969
s 0
f 1//1 4//1 3//1 2//1
f 1//2 2//2 5//2
f 2//3 3//3 5//3
f 3//4 6//4 5//4
f 4//5 6//5 3//5
f 4//6 1//6 7//6
f 7//7 6//7 4//7
